<svg width="836" height="317" viewBox="0 0 836 317" fill="none" xmlns="http://www.w3.org/2000/svg">
<path d="M4.15625 317C1.82292 317 0.65625 315.833 0.65625 313.5C0.989583 311.167 3.32292 304.5 7.65625 293.5C12.3229 282.5 18.1563 268.833 25.1563 252.5C32.1563 236.167 39.4896 219 47.1563 201C55.1563 183 62.8229 165.833 70.1563 149.5C77.4896 133.5 83.6563 120 88.6563 109C93.9896 98 97.1563 91.6667 98.1563 90C92.4896 96 86.4896 102 80.1563 108C73.8229 113.667 67.4896 119.333 61.1563 125C54.8229 130.333 47.8229 135.333 40.1563 140C32.8229 144.667 24.8229 147 16.1563 147C12.8229 147 10.4896 146 9.15625 144C7.82292 141.667 7.15625 139 7.15625 136V132.5C8.82292 119.5 12.9896 106 19.6563 92C26.6563 78 34.9896 64.8333 44.6563 52.5C54.3229 40.1667 64.1563 30.1667 74.1563 22.5C84.8229 13.8333 97.3229 9.5 111.656 9.5H169.156C170.823 9.5 171.656 10.1667 171.656 11.5C171.656 14.1667 170.156 15.5 167.156 15.5C163.49 15.5 159.99 17.6667 156.656 22C153.323 26 150.823 29.3333 149.156 32C140.823 45 131.823 60.3333 122.156 78C112.49 95.3333 102.823 113.833 93.1563 133.5C83.8229 152.833 74.9896 171.667 66.6563 190C58.6563 208.667 51.9896 225.333 46.6563 240C54.3229 227.667 63.3229 214 73.6563 199C83.9896 184.333 94.8229 169.333 106.156 154C117.823 139 129.156 124.5 140.156 110.5C151.49 96.1667 161.49 83.5 170.156 72.5C170.823 73.8333 171.156 74.8333 171.156 75.5C171.156 78.8333 169.49 82.6667 166.156 87C154.823 102 142.323 118.5 128.656 136.5C115.323 154.5 102.156 173 89.1563 192C76.1563 211.333 64.4896 230.167 54.1563 248.5C43.8229 267.167 35.9896 284.833 30.6563 301.5C30.3229 302.833 28.4896 304.667 25.1563 307C21.8229 309.667 18.1563 312 14.1563 314C10.1563 316 6.82292 317 4.15625 317ZM36.6563 130C40.6563 130 46.1563 127.167 53.1563 121.5C60.1563 115.5 67.8229 108.167 76.1563 99.5C84.4896 90.5 92.3229 81.1667 99.6563 71.5C106.99 61.5 112.99 52.5 117.656 44.5C122.656 36.1667 125.156 29.8333 125.156 25.5C125.156 21.8333 123.99 19.3333 121.656 18C119.656 16.6667 116.99 16 113.656 16C108.323 16 102.656 18 96.6563 22C90.6563 25.6667 85.8229 29.3333 82.1563 33C78.1563 36.6667 73.3229 42.5 67.6563 50.5C62.3229 58.1667 56.8229 66.6667 51.1563 76C45.8229 85.3333 41.3229 94.3333 37.6562 103C33.9896 111.667 32.1563 118.667 32.1563 124C32.1563 128 33.6563 130 36.6563 130ZM229.305 147.5C225.971 147.5 223.138 146.833 220.805 145.5C218.471 144.167 217.305 141.667 217.305 138C217.305 133.333 218.471 128 220.805 122C223.138 116 225.805 110.167 228.805 104.5C231.805 98.5 234.471 93.6667 236.805 90C225.138 102.333 212.971 114 200.305 125C193.971 130.333 186.971 135.333 179.305 140C171.638 144.667 163.471 147 154.805 147C151.471 147 149.138 146 147.805 144C146.471 141.667 145.805 139 145.805 136C145.805 134.333 145.971 133.167 146.305 132.5C147.971 119.5 152.138 106 158.805 92C165.471 78 173.638 64.8333 183.305 52.5C192.971 40.1667 202.805 30.1667 212.805 22.5C224.138 13.8333 236.638 9.5 250.305 9.5H307.805C309.471 9.5 310.305 10.1667 310.305 11.5C310.305 14.1667 308.805 15.5 305.805 15.5C302.471 15.5 299.138 17.6667 295.805 22C292.471 26 289.971 29.3333 288.305 32C285.971 35.6667 282.305 41.8333 277.305 50.5C272.305 59.1667 267.138 68.6667 261.805 79C256.805 89 252.471 98.3333 248.805 107C245.138 115.667 243.305 122 243.305 126C243.305 130.667 245.638 133 250.305 133C255.305 133 260.971 130.667 267.305 126C273.638 121.333 279.971 115.667 286.305 109C292.971 102 298.971 95.1667 304.305 88.5C309.971 81.5 314.471 76 317.805 72C319.805 74 319.638 76.8333 317.305 80.5C315.305 83.8333 313.471 86.5 311.805 88.5C305.138 97.1667 297.471 106.167 288.805 115.5C280.138 124.5 270.638 132.167 260.305 138.5C250.305 144.5 239.971 147.5 229.305 147.5ZM175.305 130C179.305 130 184.805 127.167 191.805 121.5C199.138 115.5 206.971 108.167 215.305 99.5C223.638 90.5 231.471 81.1667 238.805 71.5C246.138 61.5 252.138 52.5 256.805 44.5C261.805 36.1667 264.305 29.8333 264.305 25.5C264.305 21.8333 263.138 19.3333 260.805 18C258.805 16.6667 256.138 16 252.805 16C247.471 16 241.638 18 235.305 22C229.305 25.6667 224.471 29.3333 220.805 33C216.805 36.6667 211.971 42.5 206.305 50.5C200.971 58.1667 195.638 66.6667 190.305 76C184.971 85.3333 180.471 94.3333 176.805 103C173.138 111.667 171.305 118.667 171.305 124C171.305 128 172.638 130 175.305 130ZM311.277 153.5C309.944 153.5 309.944 152 311.277 149C312.944 146 314.444 142.667 315.777 139C317.444 135.333 319.111 131.333 320.777 127C324.111 119 327.777 110 331.777 100C335.777 90 339.611 80.3333 343.277 71C346.944 61.3333 350.111 53.1667 352.777 46.5C355.777 39.5 357.777 35 358.777 33C354.111 38 348.444 44.3333 341.777 52C335.444 59.3333 329.444 66.5 323.777 73.5C318.111 80.5 313.777 86 310.777 90C309.777 91.3333 308.944 92 308.277 92C307.611 92 307.277 91.1667 307.277 89.5C307.277 86.8333 308.111 84.3333 309.777 82C316.111 74 323.111 65 330.777 55C338.777 45 345.944 35.8333 352.277 27.5C358.611 18.8333 362.611 13.1667 364.277 10.5C367.944 9.83333 373.277 8.83333 380.277 7.49999C387.611 6.16666 392.611 4.33332 395.277 1.99999C396.277 0.999994 397.277 0.499996 398.277 0.499996C398.944 0.499996 399.277 1.16666 399.277 2.5C399.611 3.5 399.277 4.66666 398.277 6C396.277 8.33333 392.777 13.8333 387.777 22.5C383.111 30.8333 377.944 40.1667 372.277 50.5C366.944 60.8333 361.944 70.1667 357.277 78.5C362.611 72.1667 367.777 66.1667 372.777 60.5C378.111 54.8333 381.777 50.8333 383.777 48.5C387.777 44.5 393.277 39.5 400.277 33.5C407.277 27.5 414.611 22 422.277 17C429.944 12 436.611 9.16667 442.277 8.5C443.611 8.16666 444.777 7.99999 445.777 7.99999C446.777 7.99999 447.777 7.99999 448.777 7.99999C455.111 7.99999 458.277 10.3333 458.277 15C458.277 17 457.777 19.3333 456.777 22C455.777 24.6667 454.444 27.3333 452.777 30C450.777 34 447.444 40.3333 442.777 49C438.111 57.3333 433.944 65 430.277 72L453.777 48.5C457.777 44.5 463.277 39.5 470.277 33.5C477.277 27.5 484.611 22 492.277 17C499.944 12 506.611 9.16667 512.277 8.5C513.611 8.16666 514.777 7.99999 515.777 7.99999C517.111 7.99999 518.111 7.99999 518.777 7.99999C526.111 7.99999 529.777 10.6667 529.777 16C529.777 20 527.611 25.3333 523.277 32C520.944 35.6667 517.277 41.8333 512.277 50.5C507.277 59.1667 502.111 68.6667 496.777 79C491.777 89 487.444 98.3333 483.777 107C480.111 115.667 478.277 122 478.277 126C478.277 130.667 480.611 133 485.277 133C489.611 133 495.111 130.5 501.777 125.5C508.777 120.167 515.777 113.833 522.777 106.5C530.111 99.1667 536.444 92.1667 541.777 85.5C544.111 82.8333 546.277 80.1667 548.277 77.5C550.611 74.5 551.944 72.8333 552.277 72.5C552.944 73.1667 553.277 74.3333 553.277 76C553.277 78.3333 552.444 80.6667 550.777 83C549.444 85 548.111 86.8333 546.777 88.5C540.444 96.8333 533.111 105.5 524.777 114.5C516.777 123.5 507.944 131.167 498.277 137.5C488.611 143.5 478.277 147 467.277 148C463.944 148.333 460.611 147.667 457.277 146C453.944 144.333 452.277 141.667 452.277 138C452.277 133.333 453.444 127.833 455.777 121.5C458.444 115.167 461.277 108.833 464.277 102.5C467.611 96.1667 470.111 91 471.777 87C477.777 75.3333 483.277 64.3333 488.277 54C493.277 43.6667 496.777 36.3333 498.777 32C499.777 30 500.277 28.3333 500.277 27C500.277 24.6667 498.444 24.5 494.777 26.5C491.111 28.5 486.611 31.5 481.277 35.5C476.277 39.5 471.611 43.5 467.277 47.5C462.944 51.1667 460.111 53.6667 458.777 55C453.111 60.6667 446.277 68.3333 438.277 78C430.611 87.6667 423.444 97.8333 416.777 108.5C410.111 118.833 405.444 128.5 402.777 137.5C399.444 140.5 396.277 142 393.277 142C390.944 142 388.944 141.167 387.277 139.5C385.944 137.833 385.277 135.833 385.277 133.5C385.277 126.833 387.277 119 391.277 110C395.611 100.667 399.111 93 401.777 87C407.777 75.3333 413.277 64.3333 418.277 54C423.277 43.6667 426.777 36.3333 428.777 32C429.777 30 430.277 28.3333 430.277 27C430.277 24.6667 428.444 24.5 424.777 26.5C421.111 28.5 416.611 31.5 411.277 35.5C406.277 39.5 401.611 43.5 397.277 47.5C392.944 51.1667 390.111 53.6667 388.777 55C380.777 63.3333 373.277 71.8333 366.277 80.5C359.611 89.1667 353.944 98.5 349.277 108.5C346.611 114.5 343.777 121.167 340.777 128.5C337.777 135.833 335.277 142 333.277 147C328.944 147.333 324.611 148.5 320.277 150.5C315.944 152.5 312.944 153.5 311.277 153.5ZM611.141 147.5C607.807 147.5 604.974 146.833 602.641 145.5C600.307 144.167 599.141 141.667 599.141 138C599.141 133.333 600.307 128 602.641 122C604.974 116 607.641 110.167 610.641 104.5C613.641 98.5 616.307 93.6667 618.641 90C606.974 102.333 594.807 114 582.141 125C575.807 130.333 568.807 135.333 561.141 140C553.474 144.667 545.307 147 536.641 147C533.307 147 530.974 146 529.641 144C528.307 141.667 527.641 139 527.641 136C527.641 134.333 527.807 133.167 528.141 132.5C529.807 119.5 533.974 106 540.641 92C547.307 78 555.474 64.8333 565.141 52.5C574.807 40.1667 584.641 30.1667 594.641 22.5C605.974 13.8333 618.474 9.5 632.141 9.5H689.641C691.307 9.5 692.141 10.1667 692.141 11.5C692.141 14.1667 690.641 15.5 687.641 15.5C684.307 15.5 680.974 17.6667 677.641 22C674.307 26 671.807 29.3333 670.141 32C667.807 35.6667 664.141 41.8333 659.141 50.5C654.141 59.1667 648.974 68.6667 643.641 79C638.641 89 634.307 98.3333 630.641 107C626.974 115.667 625.141 122 625.141 126C625.141 130.667 627.474 133 632.141 133C637.141 133 642.807 130.667 649.141 126C655.474 121.333 661.807 115.667 668.141 109C674.807 102 680.807 95.1667 686.141 88.5C691.807 81.5 696.307 76 699.641 72C701.641 74 701.474 76.8333 699.141 80.5C697.141 83.8333 695.307 86.5 693.641 88.5C686.974 97.1667 679.307 106.167 670.641 115.5C661.974 124.5 652.474 132.167 642.141 138.5C632.141 144.5 621.807 147.5 611.141 147.5ZM557.141 130C561.141 130 566.641 127.167 573.641 121.5C580.974 115.5 588.807 108.167 597.141 99.5C605.474 90.5 613.307 81.1667 620.641 71.5C627.974 61.5 633.974 52.5 638.641 44.5C643.641 36.1667 646.141 29.8333 646.141 25.5C646.141 21.8333 644.974 19.3333 642.641 18C640.641 16.6667 637.974 16 634.641 16C629.307 16 623.474 18 617.141 22C611.141 25.6667 606.307 29.3333 602.641 33C598.641 36.6667 593.807 42.5 588.141 50.5C582.807 58.1667 577.474 66.6667 572.141 76C566.807 85.3333 562.307 94.3333 558.641 103C554.974 111.667 553.141 118.667 553.141 124C553.141 128 554.474 130 557.141 130ZM693.113 153C691.78 153 691.78 151.667 693.113 149C694.78 146 696.28 142.667 697.613 139C699.28 135.333 700.947 131.333 702.613 127C705.947 119 709.613 110 713.613 100C717.613 90 721.447 80.3333 725.113 71C728.78 61.3333 731.947 53.1667 734.613 46.5C737.613 39.5 739.613 35 740.613 33C735.947 38 730.28 44.3333 723.613 52C717.28 59.3333 711.28 66.5 705.613 73.5C699.947 80.5 695.613 86 692.613 90C691.613 91.3333 690.78 92 690.113 92C689.447 92 689.113 91.1667 689.113 89.5C689.113 86.8333 689.947 84.3333 691.613 82C697.947 74 704.947 65 712.613 55C720.613 45 727.78 35.8333 734.113 27.5C740.447 18.8333 744.447 13.1667 746.113 10.5C749.78 9.83333 755.113 8.83333 762.113 7.49999C769.447 6.16666 774.447 4.33332 777.113 1.99999C778.113 0.999994 779.113 0.499996 780.113 0.499996C780.78 0.499996 781.113 1.16666 781.113 2.5C781.447 3.5 781.113 4.66666 780.113 6C778.113 7.99999 775.113 12.3333 771.113 19C767.447 25.6667 763.28 33.3333 758.613 42C753.947 50.6667 749.447 59 745.113 67C748.447 62 752.78 56.1667 758.113 49.5C763.78 42.5 769.947 35.8333 776.613 29.5C783.28 22.8333 789.947 17.3333 796.613 13C803.613 8.66666 810.113 6.49999 816.113 6.49999C820.447 6.49999 824.113 7.49999 827.113 9.5C830.113 11.1667 832.447 14.3333 834.113 19C835.113 21.3333 835.613 24 835.613 27C835.613 32.6667 834.113 38.1667 831.113 43.5C828.447 48.5 826.447 52.3333 825.113 55C824.78 56 823.613 57 821.613 58C819.613 58.6667 818.78 58.3333 819.113 57C819.447 55.3333 819.613 53.6667 819.613 52C819.947 50.3333 820.113 48.5 820.113 46.5C820.113 40.8333 818.947 35.6667 816.613 31C814.613 26.3333 810.78 24 805.113 24C799.78 24 793.28 27.3333 785.613 34C777.947 40.6667 770.28 48.3333 762.613 57C752.947 68.3333 745.28 79.1667 739.613 89.5C733.947 99.5 729.28 109.333 725.613 119C723.613 124.333 721.613 129.667 719.613 135C717.613 140 716.113 144 715.113 147C710.78 147.333 706.447 148.333 702.113 150C697.78 152 694.78 153 693.113 153Z" fill="black"/>
</svg>
