<svg width="380" height="264" viewBox="0 0 380 264" fill="none" xmlns="http://www.w3.org/2000/svg">
<rect x="9.5" y="19.5" width="224" height="70" rx="2.5" fill="white"/>
<rect x="9.5" y="19.5" width="224" height="70" rx="2.5" stroke="black"/>
<path d="M18.9588 36.2727H20.5568L23.3352 43.0568H23.4375L26.2159 36.2727H27.8139V45H26.5611V38.6847H26.4801L23.9062 44.9872H22.8665L20.2926 38.6804H20.2116V45H18.9588V36.2727ZM32.3832 45.1321C31.7695 45.1321 31.234 44.9915 30.7766 44.7102C30.3192 44.429 29.9641 44.0355 29.7113 43.5298C29.4585 43.0241 29.332 42.4332 29.332 41.7571C29.332 41.0781 29.4585 40.4844 29.7113 39.9759C29.9641 39.4673 30.3192 39.0724 30.7766 38.7912C31.234 38.5099 31.7695 38.3693 32.3832 38.3693C32.9968 38.3693 33.5323 38.5099 33.9897 38.7912C34.4471 39.0724 34.8022 39.4673 35.055 39.9759C35.3079 40.4844 35.4343 41.0781 35.4343 41.7571C35.4343 42.4332 35.3079 43.0241 35.055 43.5298C34.8022 44.0355 34.4471 44.429 33.9897 44.7102C33.5323 44.9915 32.9968 45.1321 32.3832 45.1321ZM32.3874 44.0625C32.7852 44.0625 33.1147 43.9574 33.3761 43.7472C33.6374 43.5369 33.8306 43.2571 33.9556 42.9077C34.0835 42.5582 34.1474 42.1733 34.1474 41.7528C34.1474 41.3352 34.0835 40.9517 33.9556 40.6023C33.8306 40.25 33.6374 39.9673 33.3761 39.7543C33.1147 39.5412 32.7852 39.4347 32.3874 39.4347C31.9869 39.4347 31.6545 39.5412 31.3903 39.7543C31.1289 39.9673 30.9343 40.25 30.8065 40.6023C30.6815 40.9517 30.619 41.3352 30.619 41.7528C30.619 42.1733 30.6815 42.5582 30.8065 42.9077C30.9343 43.2571 31.1289 43.5369 31.3903 43.7472C31.6545 43.9574 31.9869 44.0625 32.3874 44.0625ZM39.6136 45.1321C38.9801 45.1321 38.4347 44.9886 37.9773 44.7017C37.5227 44.4119 37.1733 44.0128 36.929 43.5043C36.6847 42.9957 36.5625 42.4134 36.5625 41.7571C36.5625 41.0923 36.6875 40.5057 36.9375 39.9972C37.1875 39.4858 37.5398 39.0866 37.9943 38.7997C38.4489 38.5128 38.9844 38.3693 39.6009 38.3693C40.098 38.3693 40.5412 38.4616 40.9304 38.6463C41.3196 38.8281 41.6335 39.0838 41.8722 39.4134C42.1136 39.7429 42.2571 40.1278 42.3026 40.5682H41.0625C40.9943 40.2614 40.8381 39.9972 40.5938 39.7756C40.3523 39.554 40.0284 39.4432 39.6222 39.4432C39.267 39.4432 38.956 39.5369 38.6889 39.7244C38.4247 39.9091 38.2188 40.1733 38.071 40.517C37.9233 40.858 37.8494 41.2614 37.8494 41.7273C37.8494 42.2045 37.9219 42.6165 38.0668 42.9631C38.2116 43.3097 38.4162 43.5781 38.6804 43.7685C38.9474 43.9588 39.2614 44.054 39.6222 44.054C39.8636 44.054 40.0824 44.0099 40.2784 43.9219C40.4773 43.831 40.6435 43.7017 40.777 43.5341C40.9134 43.3665 41.0085 43.1648 41.0625 42.929H42.3026C42.2571 43.3523 42.1193 43.7301 41.8892 44.0625C41.6591 44.3949 41.3509 44.6562 40.9645 44.8466C40.581 45.0369 40.1307 45.1321 39.6136 45.1321ZM44.837 42.7798L44.8285 41.2244H45.0501L47.658 38.4545H49.1836L46.2092 41.608H46.0089L44.837 42.7798ZM43.6651 45V36.2727H44.9393V45H43.6651ZM47.7987 45L45.4549 41.8892L46.3327 40.9986L49.3626 45H47.7987ZM56.2777 45.1321C55.6442 45.1321 55.0987 44.9886 54.6413 44.7017C54.1868 44.4119 53.8374 44.0128 53.593 43.5043C53.3487 42.9957 53.2266 42.4134 53.2266 41.7571C53.2266 41.0923 53.3516 40.5057 53.6016 39.9972C53.8516 39.4858 54.2038 39.0866 54.6584 38.7997C55.1129 38.5128 55.6484 38.3693 56.2649 38.3693C56.7621 38.3693 57.2053 38.4616 57.5945 38.6463C57.9837 38.8281 58.2976 39.0838 58.5362 39.4134C58.7777 39.7429 58.9212 40.1278 58.9666 40.5682H57.7266C57.6584 40.2614 57.5021 39.9972 57.2578 39.7756C57.0163 39.554 56.6925 39.4432 56.2862 39.4432C55.9311 39.4432 55.62 39.5369 55.353 39.7244C55.0888 39.9091 54.8828 40.1733 54.7351 40.517C54.5874 40.858 54.5135 41.2614 54.5135 41.7273C54.5135 42.2045 54.5859 42.6165 54.7308 42.9631C54.8757 43.3097 55.0803 43.5781 55.3445 43.7685C55.6115 43.9588 55.9254 44.054 56.2862 44.054C56.5277 44.054 56.7464 44.0099 56.9425 43.9219C57.1413 43.831 57.3075 43.7017 57.4411 43.5341C57.5774 43.3665 57.6726 43.1648 57.7266 42.929H58.9666C58.9212 43.3523 58.7834 43.7301 58.5533 44.0625C58.3232 44.3949 58.0149 44.6562 57.6286 44.8466C57.245 45.0369 56.7947 45.1321 56.2777 45.1321ZM62.234 45.1449C61.8192 45.1449 61.4442 45.0682 61.109 44.9148C60.7738 44.7585 60.5082 44.5327 60.3121 44.2372C60.119 43.9418 60.0224 43.5795 60.0224 43.1506C60.0224 42.7812 60.0934 42.4773 60.2354 42.2386C60.3775 42 60.5692 41.8111 60.8107 41.6719C61.0522 41.5327 61.3221 41.4276 61.6204 41.3565C61.9187 41.2855 62.2227 41.2315 62.5323 41.1946C62.9244 41.1491 63.2425 41.1122 63.4869 41.0838C63.7312 41.0526 63.9087 41.0028 64.0195 40.9347C64.1303 40.8665 64.1857 40.7557 64.1857 40.6023V40.5724C64.1857 40.2003 64.0806 39.9119 63.8704 39.7074C63.663 39.5028 63.3533 39.4006 62.9414 39.4006C62.5124 39.4006 62.1744 39.4957 61.9272 39.6861C61.6829 39.8736 61.5138 40.0824 61.4201 40.3125L60.2227 40.0398C60.3647 39.642 60.5721 39.321 60.8448 39.0767C61.1204 38.8295 61.4371 38.6506 61.7951 38.5398C62.1531 38.4261 62.5295 38.3693 62.9244 38.3693C63.1857 38.3693 63.4627 38.4006 63.7553 38.4631C64.0508 38.5227 64.3263 38.6335 64.582 38.7955C64.8406 38.9574 65.0522 39.1889 65.217 39.4901C65.3817 39.7884 65.4641 40.1761 65.4641 40.6534V45H64.2198V44.1051H64.1687C64.0863 44.2699 63.9627 44.4318 63.7979 44.5909C63.6332 44.75 63.4215 44.8821 63.163 44.9872C62.9045 45.0923 62.5948 45.1449 62.234 45.1449ZM62.511 44.1222C62.8633 44.1222 63.1644 44.0526 63.4144 43.9134C63.6673 43.7741 63.859 43.5923 63.9897 43.3679C64.1232 43.1406 64.19 42.8977 64.19 42.6392V41.7955C64.1445 41.8409 64.0565 41.8835 63.9258 41.9233C63.7979 41.9602 63.6516 41.9929 63.4869 42.0213C63.3221 42.0469 63.1616 42.071 63.0053 42.0938C62.8491 42.1136 62.7184 42.1307 62.6133 42.1449C62.3661 42.1761 62.1403 42.2287 61.9357 42.3026C61.734 42.3764 61.5721 42.483 61.4499 42.6222C61.3306 42.7585 61.271 42.9403 61.271 43.1676C61.271 43.483 61.3874 43.7216 61.6204 43.8835C61.8533 44.0426 62.1502 44.1222 62.511 44.1222ZM72.0661 40.0526L70.9112 40.2571C70.8629 40.1094 70.7862 39.9687 70.6811 39.8352C70.5788 39.7017 70.4396 39.5923 70.2635 39.5071C70.0874 39.4219 69.8672 39.3793 69.603 39.3793C69.2422 39.3793 68.9411 39.4602 68.6996 39.6222C68.4581 39.7812 68.3374 39.9872 68.3374 40.2401C68.3374 40.4588 68.4183 40.6349 68.5803 40.7685C68.7422 40.902 69.0036 41.0114 69.3643 41.0966L70.4041 41.3352C71.0064 41.4744 71.4553 41.6889 71.7507 41.9787C72.0462 42.2685 72.1939 42.6449 72.1939 43.108C72.1939 43.5 72.0803 43.8494 71.853 44.1562C71.6286 44.4602 71.3146 44.6989 70.9112 44.8722C70.5107 45.0455 70.0462 45.1321 69.5178 45.1321C68.7848 45.1321 68.1868 44.9759 67.7237 44.6634C67.2607 44.348 66.9766 43.9006 66.8714 43.321L68.103 43.1335C68.1797 43.4545 68.3374 43.6974 68.576 43.8622C68.8146 44.0241 69.1257 44.1051 69.5092 44.1051C69.9268 44.1051 70.2607 44.0185 70.5107 43.8452C70.7607 43.669 70.8857 43.4545 70.8857 43.2017C70.8857 42.9972 70.8089 42.8253 70.6555 42.6861C70.505 42.5469 70.2734 42.4418 69.9609 42.3707L68.853 42.1278C68.2422 41.9886 67.7905 41.767 67.4979 41.4631C67.2081 41.1591 67.0632 40.7741 67.0632 40.3082C67.0632 39.9219 67.1712 39.5838 67.3871 39.294C67.603 39.0043 67.9013 38.7784 68.282 38.6165C68.6626 38.4517 69.0987 38.3693 69.5902 38.3693C70.2976 38.3693 70.8544 38.5227 71.2607 38.8295C71.6669 39.1335 71.9354 39.5412 72.0661 40.0526ZM76.4158 45.1321C75.771 45.1321 75.2156 44.9943 74.7496 44.7188C74.2866 44.4403 73.9286 44.0497 73.6758 43.5469C73.4258 43.0412 73.3008 42.4489 73.3008 41.7699C73.3008 41.0994 73.4258 40.5085 73.6758 39.9972C73.9286 39.4858 74.2809 39.0866 74.7326 38.7997C75.1871 38.5128 75.7184 38.3693 76.3263 38.3693C76.6957 38.3693 77.0536 38.4304 77.4002 38.5526C77.7468 38.6747 78.0579 38.8665 78.3335 39.1278C78.609 39.3892 78.8263 39.7287 78.9854 40.1463C79.1445 40.5611 79.2241 41.0653 79.2241 41.6591V42.1108H74.021V41.1562H77.9755C77.9755 40.821 77.9073 40.5241 77.771 40.2656C77.6346 40.0043 77.4428 39.7983 77.1957 39.6477C76.9513 39.4972 76.6644 39.4219 76.3349 39.4219C75.9769 39.4219 75.6644 39.5099 75.3974 39.6861C75.1332 39.8594 74.9286 40.0866 74.7837 40.3679C74.6417 40.6463 74.5707 40.9489 74.5707 41.2756V42.0213C74.5707 42.4588 74.6474 42.831 74.8008 43.1378C74.957 43.4446 75.1744 43.679 75.4528 43.8409C75.7312 44 76.0565 44.0795 76.4286 44.0795C76.6701 44.0795 76.8903 44.0455 77.0891 43.9773C77.288 43.9062 77.4599 43.8011 77.6048 43.6619C77.7496 43.5227 77.8604 43.3509 77.9371 43.1463L79.1431 43.3636C79.0465 43.7187 78.8732 44.0298 78.6232 44.2969C78.3761 44.5611 78.065 44.767 77.69 44.9148C77.3178 45.0597 76.8931 45.1321 76.4158 45.1321ZM83.8136 45V38.4545H85.0877V45H83.8136ZM84.457 37.4446C84.2354 37.4446 84.0451 37.3707 83.886 37.223C83.7298 37.0724 83.6516 36.8935 83.6516 36.6861C83.6516 36.4759 83.7298 36.2969 83.886 36.1491C84.0451 35.9986 84.2354 35.9233 84.457 35.9233C84.6786 35.9233 84.8675 35.9986 85.0238 36.1491C85.1829 36.2969 85.2624 36.4759 85.2624 36.6861C85.2624 36.8935 85.1829 37.0724 85.0238 37.223C84.8675 37.3707 84.6786 37.4446 84.457 37.4446ZM88.076 41.1136V45H86.8018V38.4545H88.0249V39.5199H88.1058C88.2564 39.1733 88.4922 38.8949 88.8132 38.6847C89.1371 38.4744 89.5447 38.3693 90.0362 38.3693C90.4822 38.3693 90.8729 38.4631 91.2081 38.6506C91.5433 38.8352 91.8033 39.1108 91.9879 39.4773C92.1726 39.8437 92.2649 40.2969 92.2649 40.8366V45H90.9908V40.9901C90.9908 40.5156 90.8672 40.1449 90.62 39.8778C90.3729 39.608 90.0334 39.473 89.6016 39.473C89.3061 39.473 89.0433 39.5369 88.8132 39.6648C88.5859 39.7926 88.4055 39.9801 88.272 40.2273C88.1413 40.4716 88.076 40.767 88.076 41.1136ZM97.0291 38.4545V39.4773H93.4538V38.4545H97.0291ZM94.4126 36.8864H95.6868V43.0781C95.6868 43.3253 95.7237 43.5114 95.7976 43.6364C95.8714 43.7585 95.9666 43.8423 96.0831 43.8878C96.2024 43.9304 96.3317 43.9517 96.4709 43.9517C96.5732 43.9517 96.6626 43.9446 96.7393 43.9304C96.8161 43.9162 96.8757 43.9048 96.9183 43.8963L97.1484 44.9489C97.0746 44.9773 96.9695 45.0057 96.8331 45.0341C96.6967 45.0653 96.5263 45.0824 96.3217 45.0852C95.9865 45.0909 95.674 45.0312 95.3842 44.9062C95.0945 44.7812 94.8601 44.5881 94.6811 44.3267C94.5021 44.0653 94.4126 43.7372 94.4126 43.3423V36.8864ZM101.189 45.1321C100.544 45.1321 99.989 44.9943 99.5231 44.7188C99.06 44.4403 98.7021 44.0497 98.4492 43.5469C98.1992 43.0412 98.0742 42.4489 98.0742 41.7699C98.0742 41.0994 98.1992 40.5085 98.4492 39.9972C98.7021 39.4858 99.0543 39.0866 99.506 38.7997C99.9606 38.5128 100.492 38.3693 101.1 38.3693C101.469 38.3693 101.827 38.4304 102.174 38.5526C102.52 38.6747 102.831 38.8665 103.107 39.1278C103.382 39.3892 103.6 39.7287 103.759 40.1463C103.918 40.5611 103.998 41.0653 103.998 41.6591V42.1108H98.7944V41.1562H102.749C102.749 40.821 102.681 40.5241 102.544 40.2656C102.408 40.0043 102.216 39.7983 101.969 39.6477C101.725 39.4972 101.438 39.4219 101.108 39.4219C100.75 39.4219 100.438 39.5099 100.171 39.6861C99.9066 39.8594 99.7021 40.0866 99.5572 40.3679C99.4151 40.6463 99.3441 40.9489 99.3441 41.2756V42.0213C99.3441 42.4588 99.4208 42.831 99.5742 43.1378C99.7305 43.4446 99.9478 43.679 100.226 43.8409C100.505 44 100.83 44.0795 101.202 44.0795C101.444 44.0795 101.664 44.0455 101.863 43.9773C102.061 43.9062 102.233 43.8011 102.378 43.6619C102.523 43.5227 102.634 43.3509 102.711 43.1463L103.917 43.3636C103.82 43.7187 103.647 44.0298 103.397 44.2969C103.15 44.5611 102.838 44.767 102.463 44.9148C102.091 45.0597 101.667 45.1321 101.189 45.1321ZM105.411 45V38.4545H106.643V39.4943H106.711C106.83 39.142 107.04 38.8651 107.342 38.6634C107.646 38.4588 107.989 38.3565 108.373 38.3565C108.452 38.3565 108.546 38.3594 108.654 38.3651C108.765 38.3707 108.852 38.3778 108.914 38.3864V39.6051C108.863 39.5909 108.772 39.5753 108.641 39.5582C108.511 39.5384 108.38 39.5284 108.249 39.5284C107.948 39.5284 107.68 39.5923 107.444 39.7202C107.211 39.8452 107.026 40.0199 106.89 40.2443C106.754 40.4659 106.685 40.7187 106.685 41.0028V45H105.411ZM115.815 38.4545L113.442 45H112.078L109.7 38.4545H111.068L112.726 43.4915H112.794L114.447 38.4545H115.815ZM117.013 45V38.4545H118.287V45H117.013ZM117.656 37.4446C117.435 37.4446 117.244 37.3707 117.085 37.223C116.929 37.0724 116.851 36.8935 116.851 36.6861C116.851 36.4759 116.929 36.2969 117.085 36.1491C117.244 35.9986 117.435 35.9233 117.656 35.9233C117.878 35.9233 118.067 35.9986 118.223 36.1491C118.382 36.2969 118.462 36.4759 118.462 36.6861C118.462 36.8935 118.382 37.0724 118.223 37.223C118.067 37.3707 117.878 37.4446 117.656 37.4446ZM122.822 45.1321C122.177 45.1321 121.622 44.9943 121.156 44.7188C120.693 44.4403 120.335 44.0497 120.082 43.5469C119.832 43.0412 119.707 42.4489 119.707 41.7699C119.707 41.0994 119.832 40.5085 120.082 39.9972C120.335 39.4858 120.687 39.0866 121.139 38.7997C121.593 38.5128 122.125 38.3693 122.733 38.3693C123.102 38.3693 123.46 38.4304 123.806 38.5526C124.153 38.6747 124.464 38.8665 124.74 39.1278C125.015 39.3892 125.233 39.7287 125.392 40.1463C125.551 40.5611 125.63 41.0653 125.63 41.6591V42.1108H120.427V41.1562H124.382C124.382 40.821 124.314 40.5241 124.177 40.2656C124.041 40.0043 123.849 39.7983 123.602 39.6477C123.358 39.4972 123.071 39.4219 122.741 39.4219C122.383 39.4219 122.071 39.5099 121.804 39.6861C121.539 39.8594 121.335 40.0866 121.19 40.3679C121.048 40.6463 120.977 40.9489 120.977 41.2756V42.0213C120.977 42.4588 121.054 42.831 121.207 43.1378C121.363 43.4446 121.581 43.679 121.859 43.8409C122.137 44 122.463 44.0795 122.835 44.0795C123.076 44.0795 123.297 44.0455 123.495 43.9773C123.694 43.9062 123.866 43.8011 124.011 43.6619C124.156 43.5227 124.267 43.3509 124.343 43.1463L125.549 43.3636C125.453 43.7187 125.279 44.0298 125.029 44.2969C124.782 44.5611 124.471 44.767 124.096 44.9148C123.724 45.0597 123.299 45.1321 122.822 45.1321ZM128.451 45L126.525 38.4545H127.842L129.125 43.2614H129.189L130.475 38.4545H131.792L133.071 43.2401H133.135L134.409 38.4545H135.725L133.804 45H132.504L131.174 40.2741H131.076L129.747 45H128.451ZM141.529 45L139.603 38.4545H140.92L142.203 43.2614H142.267L143.554 38.4545H144.87L146.149 43.2401H146.213L147.487 38.4545H148.804L146.882 45H145.582L144.252 40.2741H144.154L142.825 45H141.529ZM150.013 45V38.4545H151.287V45H150.013ZM150.656 37.4446C150.435 37.4446 150.244 37.3707 150.085 37.223C149.929 37.0724 149.851 36.8935 149.851 36.6861C149.851 36.4759 149.929 36.2969 150.085 36.1491C150.244 35.9986 150.435 35.9233 150.656 35.9233C150.878 35.9233 151.067 35.9986 151.223 36.1491C151.382 36.2969 151.462 36.4759 151.462 36.6861C151.462 36.8935 151.382 37.0724 151.223 37.223C151.067 37.3707 150.878 37.4446 150.656 37.4446ZM156.056 38.4545V39.4773H152.481V38.4545H156.056ZM153.44 36.8864H154.714V43.0781C154.714 43.3253 154.751 43.5114 154.825 43.6364C154.899 43.7585 154.994 43.8423 155.11 43.8878C155.23 43.9304 155.359 43.9517 155.498 43.9517C155.6 43.9517 155.69 43.9446 155.767 43.9304C155.843 43.9162 155.903 43.9048 155.946 43.8963L156.176 44.9489C156.102 44.9773 155.997 45.0057 155.86 45.0341C155.724 45.0653 155.554 45.0824 155.349 45.0852C155.014 45.0909 154.701 45.0312 154.412 44.9062C154.122 44.7812 153.887 44.5881 153.708 44.3267C153.529 44.0653 153.44 43.7372 153.44 43.3423V36.8864ZM158.881 41.1136V45H157.607V36.2727H158.864V39.5199H158.945C159.098 39.1676 159.332 38.8878 159.648 38.6804C159.963 38.473 160.375 38.3693 160.884 38.3693C161.332 38.3693 161.724 38.4616 162.06 38.6463C162.398 38.831 162.659 39.1065 162.844 39.473C163.031 39.8366 163.125 40.2912 163.125 40.8366V45H161.851V40.9901C161.851 40.5099 161.727 40.1378 161.48 39.8736C161.233 39.6065 160.889 39.473 160.449 39.473C160.148 39.473 159.878 39.5369 159.639 39.6648C159.403 39.7926 159.217 39.9801 159.081 40.2273C158.947 40.4716 158.881 40.767 158.881 41.1136ZM168.103 45V36.2727H171.214C171.89 36.2727 172.451 36.3892 172.897 36.6222C173.346 36.8551 173.681 37.1776 173.903 37.5895C174.125 37.9986 174.235 38.4716 174.235 39.0085C174.235 39.5426 174.123 40.0128 173.899 40.419C173.677 40.8224 173.342 41.1364 172.893 41.3608C172.447 41.5852 171.886 41.6974 171.21 41.6974H168.853V40.5639H171.091C171.517 40.5639 171.863 40.5028 172.13 40.3807C172.4 40.2585 172.598 40.081 172.723 39.848C172.848 39.6151 172.91 39.3352 172.91 39.0085C172.91 38.679 172.846 38.3935 172.718 38.152C172.593 37.9105 172.396 37.7259 172.126 37.598C171.859 37.4673 171.508 37.402 171.074 37.402H169.42V45H168.103ZM172.412 41.0625L174.568 45H173.068L170.954 41.0625H172.412ZM178.411 45.1321C177.797 45.1321 177.261 44.9915 176.804 44.7102C176.347 44.429 175.991 44.0355 175.739 43.5298C175.486 43.0241 175.359 42.4332 175.359 41.7571C175.359 41.0781 175.486 40.4844 175.739 39.9759C175.991 39.4673 176.347 39.0724 176.804 38.7912C177.261 38.5099 177.797 38.3693 178.411 38.3693C179.024 38.3693 179.56 38.5099 180.017 38.7912C180.474 39.0724 180.83 39.4673 181.082 39.9759C181.335 40.4844 181.462 41.0781 181.462 41.7571C181.462 42.4332 181.335 43.0241 181.082 43.5298C180.83 44.0355 180.474 44.429 180.017 44.7102C179.56 44.9915 179.024 45.1321 178.411 45.1321ZM178.415 44.0625C178.813 44.0625 179.142 43.9574 179.403 43.7472C179.665 43.5369 179.858 43.2571 179.983 42.9077C180.111 42.5582 180.175 42.1733 180.175 41.7528C180.175 41.3352 180.111 40.9517 179.983 40.6023C179.858 40.25 179.665 39.9673 179.403 39.7543C179.142 39.5412 178.813 39.4347 178.415 39.4347C178.014 39.4347 177.682 39.5412 177.418 39.7543C177.156 39.9673 176.962 40.25 176.834 40.6023C176.709 40.9517 176.646 41.3352 176.646 41.7528C176.646 42.1733 176.709 42.5582 176.834 42.9077C176.962 43.2571 177.156 43.5369 177.418 43.7472C177.682 43.9574 178.014 44.0625 178.415 44.0625ZM182.986 45V36.2727H184.26V39.5156H184.337C184.411 39.3793 184.517 39.2216 184.657 39.0426C184.796 38.8636 184.989 38.7074 185.236 38.5739C185.483 38.4375 185.81 38.3693 186.216 38.3693C186.745 38.3693 187.216 38.5028 187.631 38.7699C188.046 39.0369 188.371 39.4219 188.607 39.9247C188.846 40.4276 188.965 41.0327 188.965 41.7401C188.965 42.4474 188.847 43.054 188.611 43.5597C188.375 44.0625 188.051 44.4503 187.64 44.723C187.228 44.9929 186.757 45.1278 186.229 45.1278C185.831 45.1278 185.506 45.0611 185.253 44.9276C185.003 44.794 184.807 44.6378 184.665 44.4588C184.523 44.2798 184.414 44.1207 184.337 43.9815H184.23V45H182.986ZM184.235 41.7273C184.235 42.1875 184.301 42.5909 184.435 42.9375C184.569 43.2841 184.762 43.5554 185.015 43.7514C185.267 43.9446 185.577 44.0412 185.944 44.0412C186.324 44.0412 186.642 43.9403 186.898 43.7386C187.154 43.5341 187.347 43.2571 187.478 42.9077C187.611 42.5582 187.678 42.1648 187.678 41.7273C187.678 41.2955 187.613 40.9077 187.482 40.5639C187.354 40.2202 187.161 39.9489 186.902 39.75C186.647 39.5511 186.327 39.4517 185.944 39.4517C185.574 39.4517 185.262 39.5469 185.006 39.7372C184.753 39.9276 184.561 40.1932 184.431 40.5341C184.3 40.875 184.235 41.2727 184.235 41.7273ZM193.217 45.1321C192.572 45.1321 192.016 44.9943 191.55 44.7188C191.087 44.4403 190.729 44.0497 190.477 43.5469C190.227 43.0412 190.102 42.4489 190.102 41.7699C190.102 41.0994 190.227 40.5085 190.477 39.9972C190.729 39.4858 191.082 39.0866 191.533 38.7997C191.988 38.5128 192.519 38.3693 193.127 38.3693C193.496 38.3693 193.854 38.4304 194.201 38.5526C194.548 38.6747 194.859 38.8665 195.134 39.1278C195.41 39.3892 195.627 39.7287 195.786 40.1463C195.945 40.5611 196.025 41.0653 196.025 41.6591V42.1108H190.822V41.1562H194.776C194.776 40.821 194.708 40.5241 194.572 40.2656C194.435 40.0043 194.244 39.7983 193.996 39.6477C193.752 39.4972 193.465 39.4219 193.136 39.4219C192.778 39.4219 192.465 39.5099 192.198 39.6861C191.934 39.8594 191.729 40.0866 191.585 40.3679C191.442 40.6463 191.371 40.9489 191.371 41.2756V42.0213C191.371 42.4588 191.448 42.831 191.602 43.1378C191.758 43.4446 191.975 43.679 192.254 43.8409C192.532 44 192.857 44.0795 193.229 44.0795C193.471 44.0795 193.691 44.0455 193.89 43.9773C194.089 43.9062 194.261 43.8011 194.406 43.6619C194.55 43.5227 194.661 43.3509 194.738 43.1463L195.944 43.3636C195.847 43.7187 195.674 44.0298 195.424 44.2969C195.177 44.5611 194.866 44.767 194.491 44.9148C194.119 45.0597 193.694 45.1321 193.217 45.1321ZM197.439 45V38.4545H198.67V39.4943H198.738C198.858 39.142 199.068 38.8651 199.369 38.6634C199.673 38.4588 200.017 38.3565 200.4 38.3565C200.48 38.3565 200.574 38.3594 200.681 38.3651C200.792 38.3707 200.879 38.3778 200.941 38.3864V39.6051C200.89 39.5909 200.799 39.5753 200.669 39.5582C200.538 39.5384 200.407 39.5284 200.277 39.5284C199.975 39.5284 199.707 39.5923 199.471 39.7202C199.238 39.8452 199.054 40.0199 198.917 40.2443C198.781 40.4659 198.713 40.7187 198.713 41.0028V45H197.439ZM205.486 38.4545V39.4773H201.911V38.4545H205.486ZM202.87 36.8864H204.144V43.0781C204.144 43.3253 204.181 43.5114 204.255 43.6364C204.328 43.7585 204.424 43.8423 204.54 43.8878C204.659 43.9304 204.789 43.9517 204.928 43.9517C205.03 43.9517 205.12 43.9446 205.196 43.9304C205.273 43.9162 205.333 43.9048 205.375 43.8963L205.605 44.9489C205.532 44.9773 205.426 45.0057 205.29 45.0341C205.154 45.0653 204.983 45.0824 204.779 45.0852C204.444 45.0909 204.131 45.0312 203.841 44.9062C203.551 44.7812 203.317 44.5881 203.138 44.3267C202.959 44.0653 202.87 43.7372 202.87 43.3423V36.8864ZM209.743 37.4062V36.2727H216.498V37.4062H213.775V45H212.462V37.4062H209.743ZM218.317 45.081C218.084 45.081 217.884 44.9986 217.716 44.8338C217.549 44.6662 217.465 44.4645 217.465 44.2287C217.465 43.9957 217.549 43.7969 217.716 43.6321C217.884 43.4645 218.084 43.3807 218.317 43.3807C218.55 43.3807 218.75 43.4645 218.918 43.6321C219.086 43.7969 219.169 43.9957 219.169 44.2287C219.169 44.3849 219.13 44.5284 219.05 44.6591C218.973 44.7869 218.871 44.8892 218.743 44.9659C218.615 45.0426 218.473 45.081 218.317 45.081Z" fill="black"/>
<path d="M18.767 57V51.5455H19.5767V52.3977H19.6477C19.7614 52.1065 19.9448 51.8804 20.1982 51.7195C20.4515 51.5561 20.7557 51.4744 21.1108 51.4744C21.4706 51.4744 21.7701 51.5561 22.0092 51.7195C22.2507 51.8804 22.4389 52.1065 22.5739 52.3977H22.6307C22.7704 52.116 22.9799 51.8923 23.2592 51.7266C23.5386 51.5585 23.8736 51.4744 24.2642 51.4744C24.7519 51.4744 25.1508 51.6271 25.4609 51.9325C25.7711 52.2356 25.9261 52.7079 25.9261 53.3494V57H25.0881V53.3494C25.0881 52.947 24.978 52.6593 24.7578 52.4865C24.5376 52.3137 24.2784 52.2273 23.9801 52.2273C23.5966 52.2273 23.2995 52.3433 23.0888 52.5753C22.8781 52.8049 22.7727 53.0961 22.7727 53.4489V57H21.9205V53.2642C21.9205 52.9541 21.8198 52.7043 21.6186 52.5149C21.4174 52.3232 21.1581 52.2273 20.8409 52.2273C20.6231 52.2273 20.4195 52.2853 20.2301 52.4013C20.0431 52.5173 19.8916 52.6783 19.7756 52.8842C19.6619 53.0878 19.6051 53.3234 19.6051 53.5909V57H18.767ZM29.7454 57.1136C29.2198 57.1136 28.7665 56.9976 28.3853 56.7656C28.0065 56.5312 27.7141 56.2045 27.5082 55.7855C27.3046 55.3641 27.2028 54.8741 27.2028 54.3153C27.2028 53.7566 27.3046 53.2642 27.5082 52.8381C27.7141 52.4096 28.0006 52.0758 28.3675 51.8366C28.7369 51.5952 29.1677 51.4744 29.6602 51.4744C29.9442 51.4744 30.2248 51.5218 30.5018 51.6165C30.7788 51.7112 31.0309 51.8651 31.2582 52.0781C31.4854 52.2888 31.6665 52.5682 31.8015 52.9162C31.9364 53.2642 32.0039 53.6927 32.0039 54.2017V54.5568H27.7994V53.8324H31.1516C31.1516 53.5246 31.0901 53.25 30.967 53.0085C30.8462 52.767 30.6734 52.5765 30.4485 52.4368C30.226 52.2971 29.9632 52.2273 29.6602 52.2273C29.3263 52.2273 29.0375 52.3101 28.7937 52.4759C28.5522 52.6392 28.3664 52.8523 28.2362 53.1151C28.1059 53.3778 28.0408 53.6596 28.0408 53.9602V54.4432C28.0408 54.8551 28.1119 55.2043 28.2539 55.4908C28.3983 55.7749 28.5984 55.9915 28.854 56.1406C29.1097 56.2874 29.4068 56.3608 29.7454 56.3608C29.9656 56.3608 30.1644 56.33 30.342 56.2685C30.5219 56.2045 30.677 56.1098 30.8072 55.9844C30.9374 55.8565 31.038 55.6979 31.109 55.5085L31.9187 55.7358C31.8335 56.0104 31.6902 56.2519 31.489 56.4602C31.2878 56.6662 31.0392 56.8272 30.7433 56.9432C30.4473 57.0568 30.1147 57.1136 29.7454 57.1136ZM34.1168 53.7188V57H33.2788V51.5455H34.0884V52.3977H34.1594C34.2873 52.1207 34.4814 51.8982 34.7418 51.7301C35.0022 51.5597 35.3384 51.4744 35.7504 51.4744C36.1197 51.4744 36.4428 51.5502 36.7198 51.7017C36.9968 51.8509 37.2122 52.0781 37.3661 52.3835C37.52 52.6866 37.5969 53.0701 37.5969 53.5341V57H36.7589V53.5909C36.7589 53.1624 36.6476 52.8286 36.4251 52.5895C36.2025 52.348 35.8971 52.2273 35.5089 52.2273C35.2414 52.2273 35.0022 52.2853 34.7915 52.4013C34.5832 52.5173 34.4187 52.6866 34.2979 52.9091C34.1772 53.1316 34.1168 53.4015 34.1168 53.7188ZM41.5005 51.5455V52.2557H38.6738V51.5455H41.5005ZM39.4977 50.2386H40.3358V55.4375C40.3358 55.6742 40.3701 55.8518 40.4387 55.9702C40.5098 56.0862 40.5997 56.1643 40.7086 56.2045C40.8199 56.2424 40.9371 56.2614 41.0602 56.2614C41.1525 56.2614 41.2283 56.2566 41.2875 56.2472C41.3467 56.2353 41.394 56.2259 41.4295 56.2188L41.6 56.9716C41.5431 56.9929 41.4638 57.0142 41.362 57.0355C41.2602 57.0592 41.1312 57.071 40.975 57.071C40.7382 57.071 40.5062 57.0201 40.2789 56.9183C40.054 56.8165 39.867 56.6615 39.7179 56.4531C39.5711 56.2448 39.4977 55.982 39.4977 55.6648V50.2386ZM44.9185 57.1136C44.4261 57.1136 43.994 56.9964 43.6223 56.7621C43.253 56.5277 42.9642 56.1998 42.7559 55.7784C42.5499 55.357 42.4469 54.8646 42.4469 54.3011C42.4469 53.733 42.5499 53.237 42.7559 52.8132C42.9642 52.3894 43.253 52.0604 43.6223 51.826C43.994 51.5916 44.4261 51.4744 44.9185 51.4744C45.4109 51.4744 45.8418 51.5916 46.2111 51.826C46.5828 52.0604 46.8716 52.3894 47.0776 52.8132C47.2859 53.237 47.3901 53.733 47.3901 54.3011C47.3901 54.8646 47.2859 55.357 47.0776 55.7784C46.8716 56.1998 46.5828 56.5277 46.2111 56.7621C45.8418 56.9964 45.4109 57.1136 44.9185 57.1136ZM44.9185 56.3608C45.2926 56.3608 45.6003 56.2649 45.8418 56.0732C46.0833 55.8814 46.262 55.6293 46.378 55.3168C46.494 55.0043 46.552 54.6657 46.552 54.3011C46.552 53.9366 46.494 53.5968 46.378 53.282C46.262 52.9671 46.0833 52.7126 45.8418 52.5185C45.6003 52.3243 45.2926 52.2273 44.9185 52.2273C44.5444 52.2273 44.2367 52.3243 43.9952 52.5185C43.7537 52.7126 43.575 52.9671 43.459 53.282C43.343 53.5968 43.285 53.9366 43.285 54.3011C43.285 54.6657 43.343 55.0043 43.459 55.3168C43.575 55.6293 43.7537 55.8814 43.9952 56.0732C44.2367 56.2649 44.5444 56.3608 44.9185 56.3608ZM48.6694 57V51.5455H49.479V52.3693H49.5359C49.6353 52.0994 49.8152 51.8804 50.0756 51.7124C50.3361 51.5443 50.6296 51.4602 50.9563 51.4602C51.0179 51.4602 51.0948 51.4614 51.1871 51.4638C51.2795 51.4661 51.3493 51.4697 51.3967 51.4744V52.3267C51.3683 52.3196 51.3031 52.3089 51.2013 52.2947C51.1019 52.2782 50.9966 52.2699 50.8853 52.2699C50.6201 52.2699 50.3834 52.3255 50.1751 52.4368C49.9691 52.5457 49.8058 52.6972 49.685 52.8913C49.5666 53.0831 49.5075 53.3021 49.5075 53.5483V57H48.6694ZM56.2537 52.767L55.5009 52.9801C55.4535 52.8546 55.3837 52.7327 55.2914 52.6143C55.2014 52.4936 55.0783 52.3942 54.9221 52.3161C54.7658 52.2379 54.5658 52.1989 54.3219 52.1989C53.9881 52.1989 53.7099 52.2758 53.4874 52.4297C53.2672 52.5812 53.1571 52.7741 53.1571 53.0085C53.1571 53.2169 53.2329 53.3814 53.3844 53.5021C53.5359 53.6229 53.7727 53.7235 54.0946 53.804L54.9043 54.0028C55.392 54.1212 55.7554 54.3023 55.9945 54.5462C56.2336 54.7876 56.3532 55.099 56.3532 55.4801C56.3532 55.7926 56.2632 56.072 56.0833 56.3182C55.9057 56.5644 55.6571 56.7585 55.3375 56.9006C55.0179 57.0426 54.6462 57.1136 54.2225 57.1136C53.6661 57.1136 53.2057 56.9929 52.8411 56.7514C52.4765 56.5099 52.2457 56.1572 52.1486 55.6932L52.9441 55.4943C53.0198 55.7879 53.1631 56.008 53.3738 56.1548C53.5868 56.3016 53.865 56.375 54.2083 56.375C54.5989 56.375 54.909 56.2921 55.1387 56.1264C55.3707 55.9583 55.4867 55.7571 55.4867 55.5227C55.4867 55.3333 55.4204 55.1747 55.2878 55.0469C55.1552 54.9167 54.9516 54.8196 54.677 54.7557L53.7679 54.5426C53.2684 54.4242 52.9015 54.2408 52.6671 53.9922C52.4351 53.7412 52.3191 53.4276 52.3191 53.0511C52.3191 52.7434 52.4055 52.4711 52.5783 52.2344C52.7535 51.9976 52.9914 51.8118 53.2921 51.6768C53.5951 51.5419 53.9384 51.4744 54.3219 51.4744C54.8617 51.4744 55.2855 51.5928 55.5932 51.8295C55.9033 52.0663 56.1235 52.3788 56.2537 52.767ZM58.4528 53.7188V57H57.6147V49.7273H58.4528V52.3977H58.5238C58.6516 52.116 58.8434 51.8923 59.0991 51.7266C59.3571 51.5585 59.7004 51.4744 60.1289 51.4744C60.5006 51.4744 60.8261 51.549 61.1055 51.6982C61.3848 51.8449 61.6014 52.071 61.7553 52.3764C61.9116 52.6795 61.9897 53.0653 61.9897 53.5341V57H61.1516V53.5909C61.1516 53.1577 61.0392 52.8227 60.8143 52.5859C60.5917 52.3468 60.2828 52.2273 59.8874 52.2273C59.6128 52.2273 59.3666 52.2853 59.1488 52.4013C58.9334 52.5173 58.7629 52.6866 58.6374 52.9091C58.5143 53.1316 58.4528 53.4015 58.4528 53.7188ZM63.5229 57V51.5455H64.361V57H63.5229ZM63.949 50.6364C63.7857 50.6364 63.6448 50.5807 63.5265 50.4695C63.4105 50.3582 63.3525 50.2244 63.3525 50.0682C63.3525 49.9119 63.4105 49.7782 63.5265 49.6669C63.6448 49.5556 63.7857 49.5 63.949 49.5C64.1124 49.5 64.2521 49.5556 64.3681 49.6669C64.4864 49.7782 64.5456 49.9119 64.5456 50.0682C64.5456 50.2244 64.4864 50.3582 64.3681 50.4695C64.2521 50.5807 64.1124 50.6364 63.949 50.6364ZM65.896 59.0455V51.5455H66.7056V52.4119H66.805C66.8666 52.3172 66.9518 52.1965 67.0607 52.0497C67.172 51.9006 67.3306 51.768 67.5366 51.652C67.7449 51.5336 68.0266 51.4744 68.3817 51.4744C68.841 51.4744 69.2459 51.5893 69.5962 51.8189C69.9466 52.0485 70.2201 52.3741 70.4165 52.7955C70.613 53.2169 70.7113 53.714 70.7113 54.2869C70.7113 54.8646 70.613 55.3653 70.4165 55.7891C70.2201 56.2105 69.9478 56.5372 69.5998 56.7692C69.2518 56.9988 68.8505 57.1136 68.396 57.1136C68.0456 57.1136 67.765 57.0556 67.5543 56.9396C67.3436 56.8213 67.1815 56.6875 67.0678 56.5384C66.9542 56.3868 66.8666 56.2614 66.805 56.1619H66.734V59.0455H65.896ZM66.7198 54.2727C66.7198 54.6847 66.7802 55.0481 66.9009 55.3629C67.0217 55.6754 67.198 55.9205 67.43 56.098C67.6621 56.2732 67.9461 56.3608 68.2823 56.3608C68.6327 56.3608 68.9251 56.2685 69.1594 56.0838C69.3962 55.8968 69.5737 55.6458 69.6921 55.331C69.8129 55.0137 69.8732 54.661 69.8732 54.2727C69.8732 53.8892 69.814 53.5436 69.6957 53.2358C69.5797 52.9257 69.4033 52.6806 69.1665 52.5007C68.9322 52.3184 68.6374 52.2273 68.2823 52.2273C67.9414 52.2273 67.6549 52.3137 67.4229 52.4865C67.1909 52.657 67.0157 52.8961 66.8974 53.2038C66.779 53.5092 66.7198 53.8655 66.7198 54.2727ZM78.6658 52.767L77.913 52.9801C77.8656 52.8546 77.7958 52.7327 77.7035 52.6143C77.6135 52.4936 77.4904 52.3942 77.3342 52.3161C77.1779 52.2379 76.9779 52.1989 76.734 52.1989C76.4002 52.1989 76.122 52.2758 75.8995 52.4297C75.6793 52.5812 75.5692 52.7741 75.5692 53.0085C75.5692 53.2169 75.645 53.3814 75.7965 53.5021C75.948 53.6229 76.1848 53.7235 76.5067 53.804L77.3164 54.0028C77.8041 54.1212 78.1675 54.3023 78.4066 54.5462C78.6457 54.7876 78.7653 55.099 78.7653 55.4801C78.7653 55.7926 78.6753 56.072 78.4954 56.3182C78.3178 56.5644 78.0692 56.7585 77.7496 56.9006C77.43 57.0426 77.0584 57.1136 76.6346 57.1136C76.0782 57.1136 75.6178 56.9929 75.2532 56.7514C74.8886 56.5099 74.6578 56.1572 74.5607 55.6932L75.3562 55.4943C75.4319 55.7879 75.5752 56.008 75.7859 56.1548C75.9989 56.3016 76.2771 56.375 76.6204 56.375C77.011 56.375 77.3211 56.2921 77.5508 56.1264C77.7828 55.9583 77.8988 55.7571 77.8988 55.5227C77.8988 55.3333 77.8325 55.1747 77.6999 55.0469C77.5674 54.9167 77.3638 54.8196 77.0891 54.7557L76.18 54.5426C75.6805 54.4242 75.3136 54.2408 75.0792 53.9922C74.8472 53.7412 74.7312 53.4276 74.7312 53.0511C74.7312 52.7434 74.8176 52.4711 74.9904 52.2344C75.1656 51.9976 75.4035 51.8118 75.7042 51.6768C76.0072 51.5419 76.3505 51.4744 76.734 51.4744C77.2738 51.4744 77.6976 51.5928 78.0053 51.8295C78.3155 52.0663 78.5356 52.3788 78.6658 52.767ZM82.3137 57.1136C81.7882 57.1136 81.3348 56.9976 80.9537 56.7656C80.5749 56.5312 80.2825 56.2045 80.0765 55.7855C79.8729 55.3641 79.7711 54.8741 79.7711 54.3153C79.7711 53.7566 79.8729 53.2642 80.0765 52.8381C80.2825 52.4096 80.569 52.0758 80.9359 51.8366C81.3052 51.5952 81.7361 51.4744 82.2285 51.4744C82.5126 51.4744 82.7931 51.5218 83.0701 51.6165C83.3471 51.7112 83.5993 51.8651 83.8265 52.0781C84.0538 52.2888 84.2349 52.5682 84.3699 52.9162C84.5048 53.2642 84.5723 53.6927 84.5723 54.2017V54.5568H80.3677V53.8324H83.72C83.72 53.5246 83.6584 53.25 83.5353 53.0085C83.4146 52.767 83.2418 52.5765 83.0169 52.4368C82.7943 52.2971 82.5315 52.2273 82.2285 52.2273C81.8947 52.2273 81.6059 52.3101 81.362 52.4759C81.1206 52.6392 80.9347 52.8523 80.8045 53.1151C80.6743 53.3778 80.6092 53.6596 80.6092 53.9602V54.4432C80.6092 54.8551 80.6802 55.2043 80.8223 55.4908C80.9667 55.7749 81.1667 55.9915 81.4224 56.1406C81.6781 56.2874 81.9752 56.3608 82.3137 56.3608C82.5339 56.3608 82.7328 56.33 82.9103 56.2685C83.0903 56.2045 83.2453 56.1098 83.3755 55.9844C83.5057 55.8565 83.6064 55.6979 83.6774 55.5085L84.487 55.7358C84.4018 56.0104 84.2586 56.2519 84.0574 56.4602C83.8561 56.6662 83.6075 56.8272 83.3116 56.9432C83.0157 57.0568 82.6831 57.1136 82.3137 57.1136ZM89.7108 52.767L88.9579 52.9801C88.9106 52.8546 88.8407 52.7327 88.7484 52.6143C88.6584 52.4936 88.5353 52.3942 88.3791 52.3161C88.2228 52.2379 88.0228 52.1989 87.7789 52.1989C87.4451 52.1989 87.167 52.2758 86.9444 52.4297C86.7243 52.5812 86.6142 52.7741 86.6142 53.0085C86.6142 53.2169 86.6899 53.3814 86.8414 53.5021C86.993 53.6229 87.2297 53.7235 87.5517 53.804L88.3613 54.0028C88.849 54.1212 89.2124 54.3023 89.4515 54.5462C89.6906 54.7876 89.8102 55.099 89.8102 55.4801C89.8102 55.7926 89.7202 56.072 89.5403 56.3182C89.3627 56.5644 89.1142 56.7585 88.7946 56.9006C88.475 57.0426 88.1033 57.1136 87.6795 57.1136C87.1232 57.1136 86.6627 56.9929 86.2981 56.7514C85.9335 56.5099 85.7027 56.1572 85.6056 55.6932L86.4011 55.4943C86.4769 55.7879 86.6201 56.008 86.8308 56.1548C87.0439 56.3016 87.322 56.375 87.6653 56.375C88.0559 56.375 88.3661 56.2921 88.5957 56.1264C88.8277 55.9583 88.9437 55.7571 88.9437 55.5227C88.9437 55.3333 88.8774 55.1747 88.7449 55.0469C88.6123 54.9167 88.4087 54.8196 88.1341 54.7557L87.225 54.5426C86.7254 54.4242 86.3585 54.2408 86.1241 53.9922C85.8921 53.7412 85.7761 53.4276 85.7761 53.0511C85.7761 52.7434 85.8625 52.4711 86.0353 52.2344C86.2105 51.9976 86.4484 51.8118 86.7491 51.6768C87.0521 51.5419 87.3954 51.4744 87.7789 51.4744C88.3187 51.4744 88.7425 51.5928 89.0502 51.8295C89.3604 52.0663 89.5806 52.3788 89.7108 52.767ZM94.9354 52.767L94.1825 52.9801C94.1352 52.8546 94.0653 52.7327 93.973 52.6143C93.883 52.4936 93.7599 52.3942 93.6037 52.3161C93.4474 52.2379 93.2474 52.1989 93.0036 52.1989C92.6697 52.1989 92.3916 52.2758 92.169 52.4297C91.9489 52.5812 91.8388 52.7741 91.8388 53.0085C91.8388 53.2169 91.9145 53.3814 92.0661 53.5021C92.2176 53.6229 92.4543 53.7235 92.7763 53.804L93.5859 54.0028C94.0736 54.1212 94.437 54.3023 94.6761 54.5462C94.9152 54.7876 95.0348 55.099 95.0348 55.4801C95.0348 55.7926 94.9448 56.072 94.7649 56.3182C94.5874 56.5644 94.3388 56.7585 94.0192 56.9006C93.6996 57.0426 93.3279 57.1136 92.9041 57.1136C92.3478 57.1136 91.8873 56.9929 91.5227 56.7514C91.1581 56.5099 90.9273 56.1572 90.8303 55.6932L91.6257 55.4943C91.7015 55.7879 91.8447 56.008 92.0554 56.1548C92.2685 56.3016 92.5466 56.375 92.8899 56.375C93.2805 56.375 93.5907 56.2921 93.8203 56.1264C94.0523 55.9583 94.1683 55.7571 94.1683 55.5227C94.1683 55.3333 94.102 55.1747 93.9695 55.0469C93.8369 54.9167 93.6333 54.8196 93.3587 54.7557L92.4496 54.5426C91.95 54.4242 91.5831 54.2408 91.3487 53.9922C91.1167 53.7412 91.0007 53.4276 91.0007 53.0511C91.0007 52.7434 91.0871 52.4711 91.2599 52.2344C91.4351 51.9976 91.6731 51.8118 91.9737 51.6768C92.2768 51.5419 92.62 51.4744 93.0036 51.4744C93.5433 51.4744 93.9671 51.5928 94.2749 51.8295C94.585 52.0663 94.8052 52.3788 94.9354 52.767ZM96.2963 57V51.5455H97.1344V57H96.2963ZM96.7225 50.6364C96.5591 50.6364 96.4183 50.5807 96.2999 50.4695C96.1839 50.3582 96.1259 50.2244 96.1259 50.0682C96.1259 49.9119 96.1839 49.7782 96.2999 49.6669C96.4183 49.5556 96.5591 49.5 96.7225 49.5C96.8858 49.5 97.0255 49.5556 97.1415 49.6669C97.2599 49.7782 97.3191 49.9119 97.3191 50.0682C97.3191 50.2244 97.2599 50.3582 97.1415 50.4695C97.0255 50.5807 96.8858 50.6364 96.7225 50.6364ZM100.885 57.1136C100.393 57.1136 99.9608 56.9964 99.5891 56.7621C99.2198 56.5277 98.931 56.1998 98.7227 55.7784C98.5167 55.357 98.4137 54.8646 98.4137 54.3011C98.4137 53.733 98.5167 53.237 98.7227 52.8132C98.931 52.3894 99.2198 52.0604 99.5891 51.826C99.9608 51.5916 100.393 51.4744 100.885 51.4744C101.378 51.4744 101.809 51.5916 102.178 51.826C102.55 52.0604 102.838 52.3894 103.044 52.8132C103.253 53.237 103.357 53.733 103.357 54.3011C103.357 54.8646 103.253 55.357 103.044 55.7784C102.838 56.1998 102.55 56.5277 102.178 56.7621C101.809 56.9964 101.378 57.1136 100.885 57.1136ZM100.885 56.3608C101.259 56.3608 101.567 56.2649 101.809 56.0732C102.05 55.8814 102.229 55.6293 102.345 55.3168C102.461 55.0043 102.519 54.6657 102.519 54.3011C102.519 53.9366 102.461 53.5968 102.345 53.282C102.229 52.9671 102.05 52.7126 101.809 52.5185C101.567 52.3243 101.259 52.2273 100.885 52.2273C100.511 52.2273 100.203 52.3243 99.962 52.5185C99.7205 52.7126 99.5418 52.9671 99.4258 53.282C99.3098 53.5968 99.2518 53.9366 99.2518 54.3011C99.2518 54.6657 99.3098 55.0043 99.4258 55.3168C99.5418 55.6293 99.7205 55.8814 99.962 56.0732C100.203 56.2649 100.511 56.3608 100.885 56.3608ZM105.474 53.7188V57H104.636V51.5455H105.446V52.3977H105.517C105.645 52.1207 105.839 51.8982 106.099 51.7301C106.36 51.5597 106.696 51.4744 107.108 51.4744C107.477 51.4744 107.8 51.5502 108.077 51.7017C108.354 51.8509 108.57 52.0781 108.724 52.3835C108.877 52.6866 108.954 53.0701 108.954 53.5341V57H108.116V53.5909C108.116 53.1624 108.005 52.8286 107.782 52.5895C107.56 52.348 107.255 52.2273 106.866 52.2273C106.599 52.2273 106.36 52.2853 106.149 52.4013C105.941 52.5173 105.776 52.6866 105.655 52.9091C105.535 53.1316 105.474 53.4015 105.474 53.7188Z" fill="black"/>
<path d="M21.2386 73.0994C20.9143 73.0947 20.5947 73.0355 20.2798 72.9219C19.9673 72.8082 19.6832 72.6188 19.4276 72.3537C19.1719 72.0885 18.9671 71.7322 18.8132 71.2848C18.6617 70.8374 18.5859 70.2786 18.5859 69.6087C18.5859 68.9742 18.6487 68.4107 18.7741 67.9183C18.902 67.4259 19.0855 67.0104 19.3246 66.6719C19.5637 66.331 19.8525 66.0717 20.1911 65.8942C20.5296 65.7166 20.9096 65.6278 21.331 65.6278C21.7642 65.6278 22.1489 65.7131 22.4851 65.8835C22.8213 66.054 23.0935 66.2895 23.3018 66.5902C23.5125 66.8909 23.6463 67.233 23.7031 67.6165H22.62C22.5466 67.3134 22.401 67.0661 22.1832 66.8743C21.9654 66.6825 21.6813 66.5866 21.331 66.5866C20.7983 66.5866 20.3828 66.8187 20.0845 67.2827C19.7886 67.7467 19.6394 68.3918 19.6371 69.218H19.6903C19.8158 69.0121 19.9697 68.8369 20.152 68.6925C20.3366 68.5457 20.5426 68.4332 20.7699 68.3551C20.9995 68.2746 21.241 68.2344 21.4943 68.2344C21.9157 68.2344 22.2969 68.3374 22.6378 68.5433C22.9811 68.7469 23.2545 69.0286 23.4581 69.3885C23.6617 69.7483 23.7635 70.1603 23.7635 70.6243C23.7635 71.0883 23.6581 71.5085 23.4474 71.8849C23.2391 72.2614 22.9455 72.5597 22.5668 72.7798C22.188 72.9976 21.7453 73.1042 21.2386 73.0994ZM21.2351 72.1761C21.5144 72.1761 21.7642 72.1075 21.9844 71.9702C22.2045 71.8329 22.3786 71.6482 22.5064 71.4162C22.6342 71.1842 22.6982 70.925 22.6982 70.6385C22.6982 70.3591 22.6354 70.1046 22.5099 69.875C22.3868 69.6454 22.2164 69.4631 21.9986 69.3281C21.7831 69.1932 21.5369 69.1257 21.2599 69.1257C21.0492 69.1257 20.8539 69.166 20.674 69.2464C20.4964 69.3269 20.3402 69.4382 20.2053 69.5803C20.0703 69.7223 19.9638 69.8857 19.8857 70.0703C19.8099 70.2526 19.772 70.4455 19.772 70.6491C19.772 70.9214 19.8348 71.1735 19.9602 71.4055C20.0881 71.6375 20.2621 71.8246 20.4822 71.9666C20.7048 72.1063 20.9557 72.1761 21.2351 72.1761ZM27.589 73.1207C27.0279 73.1184 26.5485 72.9704 26.1507 72.6768C25.753 72.3833 25.4488 71.956 25.2381 71.3949C25.0274 70.8338 24.9221 70.1579 24.9221 69.3672C24.9221 68.5788 25.0274 67.9053 25.2381 67.3466C25.4512 66.7879 25.7566 66.3617 26.1543 66.0682C26.5544 65.7746 27.0326 65.6278 27.589 65.6278C28.1453 65.6278 28.6223 65.7758 29.0201 66.0717C29.4178 66.3653 29.722 66.7914 29.9327 67.3501C30.1458 67.9065 30.2523 68.5788 30.2523 69.3672C30.2523 70.1603 30.147 70.8374 29.9363 71.3984C29.7256 71.9571 29.4213 72.3845 29.0236 72.6804C28.6259 72.974 28.1477 73.1207 27.589 73.1207ZM27.589 72.1726C28.0814 72.1726 28.4661 71.9323 28.7431 71.4517C29.0224 70.9711 29.1621 70.2763 29.1621 69.3672C29.1621 68.7635 29.0982 68.2533 28.9703 67.8366C28.8449 67.4176 28.6638 67.1004 28.427 66.8849C28.1926 66.6671 27.9133 66.5582 27.589 66.5582C27.0989 66.5582 26.7142 66.7997 26.4348 67.2827C26.1555 67.7656 26.0146 68.4605 26.0123 69.3672C26.0123 69.9732 26.075 70.4858 26.2005 70.9048C26.3283 71.3215 26.5094 71.6375 26.7438 71.853C26.9782 72.0661 27.2599 72.1726 27.589 72.1726ZM34.1728 73V67.5455H35.1919V68.4332H35.2594C35.373 68.1326 35.5589 67.8982 35.8169 67.7301C36.075 67.5597 36.3839 67.4744 36.7438 67.4744C37.1084 67.4744 37.4138 67.5597 37.66 67.7301C37.9086 67.9006 38.092 68.1349 38.2104 68.4332H38.2672C38.3974 68.142 38.6046 67.91 38.8887 67.7372C39.1728 67.562 39.5113 67.4744 39.9043 67.4744C40.3991 67.4744 40.8027 67.6295 41.1152 67.9396C41.4301 68.2498 41.5875 68.7173 41.5875 69.3423V73H40.5257V69.4418C40.5257 69.0724 40.4251 68.8049 40.2239 68.6392C40.0227 68.4735 39.7824 68.3906 39.503 68.3906C39.1574 68.3906 38.8887 68.4972 38.6969 68.7102C38.5051 68.9209 38.4093 69.192 38.4093 69.5234V73H37.351V69.3743C37.351 69.0784 37.2587 68.8404 37.074 68.6605C36.8894 68.4806 36.6491 68.3906 36.3532 68.3906C36.1519 68.3906 35.9661 68.4439 35.7956 68.5504C35.6275 68.6546 35.4914 68.8002 35.3873 68.9872C35.2855 69.1742 35.2346 69.3909 35.2346 69.6371V73H34.1728ZM43.0107 73V67.5455H44.0724V73H43.0107ZM43.5469 66.7038C43.3622 66.7038 43.2036 66.6423 43.071 66.5192C42.9408 66.3937 42.8757 66.2446 42.8757 66.0717C42.8757 65.8965 42.9408 65.7474 43.071 65.6243C43.2036 65.4988 43.3622 65.4361 43.5469 65.4361C43.7315 65.4361 43.889 65.4988 44.0192 65.6243C44.1518 65.7474 44.218 65.8965 44.218 66.0717C44.218 66.2446 44.1518 66.3937 44.0192 66.5192C43.889 66.6423 43.7315 66.7038 43.5469 66.7038ZM46.5627 69.7614V73H45.5009V67.5455H46.5201V68.4332H46.5875C46.713 68.1444 46.9095 67.9124 47.177 67.7372C47.4469 67.562 47.7866 67.4744 48.1962 67.4744C48.5679 67.4744 48.8934 67.5526 49.1728 67.7088C49.4521 67.8627 49.6687 68.0923 49.8226 68.3977C49.9765 68.7031 50.0534 69.0807 50.0534 69.5305V73H48.9917V69.6584C48.9917 69.263 48.8887 68.9541 48.6827 68.7315C48.4767 68.5066 48.1938 68.3942 47.834 68.3942C47.5878 68.3942 47.3688 68.4474 47.177 68.554C46.9876 68.6605 46.8373 68.8168 46.726 69.0227C46.6171 69.2263 46.5627 69.4725 46.5627 69.7614ZM54.9327 70.7379V67.5455H55.998V73H54.954V72.0554H54.8972C54.7717 72.3466 54.5705 72.5893 54.2935 72.7834C54.0189 72.9751 53.6768 73.071 53.2672 73.071C52.9168 73.071 52.6067 72.9941 52.3368 72.8402C52.0693 72.6839 51.8586 72.4531 51.7047 72.1477C51.5532 71.8423 51.4775 71.4647 51.4775 71.0149V67.5455H52.5392V70.8871C52.5392 71.2588 52.6422 71.5547 52.8482 71.7749C53.0542 71.995 53.3217 72.1051 53.6507 72.1051C53.8496 72.1051 54.0473 72.0554 54.2438 71.956C54.4426 71.8565 54.6072 71.7062 54.7374 71.505C54.87 71.3037 54.9351 71.0481 54.9327 70.7379ZM59.9709 67.5455V68.3977H56.9915V67.5455H59.9709ZM57.7905 66.2386H58.8523V71.3984C58.8523 71.6044 58.883 71.7595 58.9446 71.8636C59.0062 71.9654 59.0855 72.0353 59.1825 72.0732C59.282 72.1087 59.3897 72.1264 59.5057 72.1264C59.5909 72.1264 59.6655 72.1205 59.7294 72.1087C59.7933 72.0968 59.843 72.0874 59.8786 72.0803L60.0703 72.9574C60.0088 72.9811 59.9212 73.0047 59.8075 73.0284C59.6939 73.0545 59.5518 73.0687 59.3814 73.071C59.102 73.0758 58.8416 73.026 58.6001 72.9219C58.3587 72.8177 58.1634 72.6567 58.0142 72.4389C57.8651 72.2211 57.7905 71.9477 57.7905 71.6186V66.2386ZM63.4377 73.1101C62.9003 73.1101 62.4374 72.9953 62.0492 72.7656C61.6633 72.5336 61.365 72.2081 61.1543 71.7891C60.946 71.3677 60.8418 70.8741 60.8418 70.3082C60.8418 69.7495 60.946 69.2571 61.1543 68.831C61.365 68.4048 61.6586 68.0722 62.035 67.8331C62.4138 67.594 62.8565 67.4744 63.3631 67.4744C63.6709 67.4744 63.9692 67.5253 64.258 67.6271C64.5468 67.7289 64.806 67.8887 65.0357 68.1065C65.2653 68.3243 65.4464 68.6072 65.579 68.9553C65.7116 69.3009 65.7779 69.7211 65.7779 70.2159V70.5923H61.4419V69.7969H64.7374C64.7374 69.5175 64.6806 69.2701 64.5669 69.0547C64.4533 68.8369 64.2935 68.6652 64.0875 68.5398C63.8839 68.4143 63.6448 68.3516 63.3702 68.3516C63.0719 68.3516 62.8115 68.425 62.589 68.5717C62.3688 68.7161 62.1983 68.9055 62.0776 69.1399C61.9592 69.3719 61.9 69.6241 61.9 69.8963V70.5178C61.9 70.8823 61.964 71.1925 62.0918 71.4482C62.222 71.7038 62.4031 71.8991 62.6351 72.0341C62.8671 72.1667 63.1382 72.233 63.4483 72.233C63.6496 72.233 63.833 72.2045 63.9988 72.1477C64.1645 72.0885 64.3077 72.0009 64.4284 71.8849C64.5492 71.7689 64.6415 71.6257 64.7054 71.4553L65.7104 71.6364C65.6299 71.9323 65.4855 72.1915 65.2772 72.4141C65.0712 72.6342 64.812 72.8059 64.4995 72.929C64.1893 73.0497 63.8354 73.1101 63.4377 73.1101ZM71.0433 68.8771L70.081 69.0476C70.0407 68.9245 69.9768 68.8073 69.8892 68.696C69.804 68.5848 69.688 68.4936 69.5412 68.4226C69.3944 68.3516 69.2109 68.3161 68.9908 68.3161C68.6901 68.3161 68.4392 68.3835 68.2379 68.5185C68.0367 68.651 67.9361 68.8227 67.9361 69.0334C67.9361 69.2157 68.0036 69.3625 68.1385 69.4737C68.2734 69.585 68.4912 69.6761 68.7919 69.7472L69.6584 69.946C70.1603 70.062 70.5343 70.2408 70.7805 70.4822C71.0268 70.7237 71.1499 71.0374 71.1499 71.4233C71.1499 71.75 71.0552 72.0412 70.8658 72.2969C70.6787 72.5502 70.4171 72.7491 70.081 72.8935C69.7472 73.0379 69.3601 73.1101 68.9197 73.1101C68.3089 73.1101 67.8106 72.9799 67.4247 72.7195C67.0388 72.4567 66.8021 72.0838 66.7145 71.6009L67.7408 71.4446C67.8047 71.7121 67.9361 71.9145 68.1349 72.0518C68.3338 72.1868 68.593 72.2543 68.9126 72.2543C69.2607 72.2543 69.5388 72.1821 69.7472 72.0376C69.9555 71.8909 70.0597 71.7121 70.0597 71.5014C70.0597 71.331 69.9957 71.1877 69.8679 71.0717C69.7424 70.9557 69.5495 70.8681 69.2891 70.8089L68.3658 70.6065C67.8568 70.4905 67.4804 70.3059 67.2365 70.0526C66.995 69.7992 66.8743 69.4785 66.8743 69.0902C66.8743 68.7682 66.9643 68.4865 67.1442 68.245C67.3241 68.0036 67.5727 67.8153 67.8899 67.6804C68.2071 67.5431 68.5705 67.4744 68.9801 67.4744C69.5696 67.4744 70.0336 67.6023 70.3722 67.858C70.7107 68.1113 70.9344 68.451 71.0433 68.8771Z" fill="#C1C1C1"/>
<path d="M189.714 82.0455V74.5455H190.751V75.4297H190.839C190.901 75.3161 190.99 75.1847 191.106 75.0355C191.222 74.8864 191.383 74.7562 191.589 74.6449C191.795 74.5312 192.067 74.4744 192.406 74.4744C192.846 74.4744 193.239 74.5857 193.585 74.8082C193.93 75.0308 194.201 75.3516 194.398 75.7706C194.597 76.1896 194.696 76.6939 194.696 77.2834C194.696 77.8729 194.598 78.3783 194.401 78.7997C194.205 79.2187 193.935 79.5419 193.592 79.7692C193.248 79.9941 192.857 80.1065 192.416 80.1065C192.085 80.1065 191.814 80.0509 191.603 79.9396C191.395 79.8284 191.231 79.6982 191.113 79.549C190.995 79.3999 190.903 79.2673 190.839 79.1513H190.776V82.0455H189.714ZM190.754 77.2727C190.754 77.6562 190.81 77.9924 190.921 78.2812C191.032 78.5701 191.193 78.7962 191.404 78.9595C191.615 79.1205 191.873 79.201 192.178 79.201C192.496 79.201 192.761 79.117 192.974 78.9489C193.187 78.7784 193.348 78.5476 193.457 78.2564C193.568 77.9652 193.624 77.6373 193.624 77.2727C193.624 76.9129 193.569 76.5897 193.46 76.3033C193.354 76.0168 193.193 75.7907 192.977 75.625C192.764 75.4593 192.498 75.3764 192.178 75.3764C191.871 75.3764 191.61 75.4557 191.397 75.6143C191.186 75.773 191.027 75.9943 190.918 76.2784C190.809 76.5625 190.754 76.8939 190.754 77.2727ZM197.473 80.1207C197.127 80.1207 196.815 80.0568 196.536 79.929C196.256 79.7988 196.035 79.6106 195.871 79.3643C195.71 79.1181 195.63 78.8163 195.63 78.4588C195.63 78.151 195.689 77.8977 195.808 77.6989C195.926 77.5 196.086 77.3426 196.287 77.2266C196.488 77.1106 196.713 77.023 196.962 76.9638C197.21 76.9046 197.464 76.8596 197.722 76.8288C198.048 76.791 198.313 76.7602 198.517 76.7365C198.721 76.7105 198.869 76.669 198.961 76.6122C199.053 76.5554 199.099 76.4631 199.099 76.3352V76.3104C199.099 76.0002 199.012 75.7599 198.837 75.5895C198.664 75.419 198.406 75.3338 198.062 75.3338C197.705 75.3338 197.423 75.4131 197.217 75.5717C197.014 75.728 196.873 75.902 196.795 76.0938L195.797 75.8665C195.915 75.535 196.088 75.2675 196.315 75.0639C196.545 74.858 196.809 74.7088 197.107 74.6165C197.406 74.5218 197.719 74.4744 198.048 74.4744C198.266 74.4744 198.497 74.5005 198.741 74.5526C198.987 74.6023 199.217 74.6946 199.43 74.8295C199.645 74.9645 199.821 75.1574 199.959 75.4084C200.096 75.657 200.165 75.9801 200.165 76.3778V80H199.128V79.2543H199.085C199.017 79.3916 198.914 79.5265 198.776 79.6591C198.639 79.7917 198.463 79.9018 198.247 79.9893C198.032 80.0769 197.774 80.1207 197.473 80.1207ZM197.704 79.2685C197.997 79.2685 198.248 79.2105 198.457 79.0945C198.667 78.9785 198.827 78.8269 198.936 78.6399C199.047 78.4505 199.103 78.2481 199.103 78.0327V77.3295C199.065 77.3674 198.992 77.4029 198.883 77.4361C198.776 77.4669 198.654 77.4941 198.517 77.5178C198.38 77.5391 198.246 77.5592 198.116 77.5781C197.986 77.5947 197.877 77.6089 197.789 77.6207C197.583 77.6468 197.395 77.6906 197.224 77.7521C197.056 77.8137 196.921 77.9025 196.82 78.0185C196.72 78.1321 196.67 78.2836 196.67 78.473C196.67 78.7358 196.768 78.9347 196.962 79.0696C197.156 79.2022 197.403 79.2685 197.704 79.2685ZM205.666 75.8771L204.704 76.0476C204.664 75.9245 204.6 75.8073 204.512 75.696C204.427 75.5848 204.311 75.4936 204.164 75.4226C204.017 75.3516 203.834 75.3161 203.614 75.3161C203.313 75.3161 203.062 75.3835 202.861 75.5185C202.66 75.651 202.559 75.8227 202.559 76.0334C202.559 76.2157 202.627 76.3625 202.762 76.4737C202.896 76.585 203.114 76.6761 203.415 76.7472L204.281 76.946C204.783 77.062 205.157 77.2408 205.404 77.4822C205.65 77.7237 205.773 78.0374 205.773 78.4233C205.773 78.75 205.678 79.0412 205.489 79.2969C205.302 79.5502 205.04 79.7491 204.704 79.8935C204.37 80.0379 203.983 80.1101 203.543 80.1101C202.932 80.1101 202.434 79.9799 202.048 79.7195C201.662 79.4567 201.425 79.0838 201.338 78.6009L202.364 78.4446C202.428 78.7121 202.559 78.9145 202.758 79.0518C202.957 79.1868 203.216 79.2543 203.536 79.2543C203.884 79.2543 204.162 79.1821 204.37 79.0376C204.579 78.8909 204.683 78.7121 204.683 78.5014C204.683 78.331 204.619 78.1877 204.491 78.0717C204.365 77.9557 204.173 77.8681 203.912 77.8089L202.989 77.6065C202.48 77.4905 202.103 77.3059 201.86 77.0526C201.618 76.7992 201.497 76.4785 201.497 76.0902C201.497 75.7682 201.587 75.4865 201.767 75.245C201.947 75.0036 202.196 74.8153 202.513 74.6804C202.83 74.5431 203.194 74.4744 203.603 74.4744C204.193 74.4744 204.657 74.6023 204.995 74.858C205.334 75.1113 205.557 75.451 205.666 75.8771ZM211.028 75.8771L210.065 76.0476C210.025 75.9245 209.961 75.8073 209.874 75.696C209.788 75.5848 209.672 75.4936 209.526 75.4226C209.379 75.3516 209.195 75.3161 208.975 75.3161C208.674 75.3161 208.424 75.3835 208.222 75.5185C208.021 75.651 207.92 75.8227 207.92 76.0334C207.92 76.2157 207.988 76.3625 208.123 76.4737C208.258 76.585 208.476 76.6761 208.776 76.7472L209.643 76.946C210.145 77.062 210.519 77.2408 210.765 77.4822C211.011 77.7237 211.134 78.0374 211.134 78.4233C211.134 78.75 211.04 79.0412 210.85 79.2969C210.663 79.5502 210.402 79.7491 210.065 79.8935C209.732 80.0379 209.344 80.1101 208.904 80.1101C208.293 80.1101 207.795 79.9799 207.409 79.7195C207.023 79.4567 206.786 79.0838 206.699 78.6009L207.725 78.4446C207.789 78.7121 207.92 78.9145 208.119 79.0518C208.318 79.1868 208.577 79.2543 208.897 79.2543C209.245 79.2543 209.523 79.1821 209.732 79.0376C209.94 78.8909 210.044 78.7121 210.044 78.5014C210.044 78.331 209.98 78.1877 209.852 78.0717C209.727 77.9557 209.534 77.8681 209.273 77.8089L208.35 77.6065C207.841 77.4905 207.465 77.3059 207.221 77.0526C206.979 76.7992 206.859 76.4785 206.859 76.0902C206.859 75.7682 206.949 75.4865 207.129 75.245C207.308 75.0036 207.557 74.8153 207.874 74.6804C208.192 74.5431 208.555 74.4744 208.964 74.4744C209.554 74.4744 210.018 74.6023 210.357 74.858C210.695 75.1113 210.919 75.451 211.028 75.8771ZM214.653 80.1101C214.115 80.1101 213.652 79.9953 213.264 79.7656C212.878 79.5336 212.58 79.2081 212.369 78.7891C212.161 78.3677 212.057 77.8741 212.057 77.3082C212.057 76.7495 212.161 76.2571 212.369 75.831C212.58 75.4048 212.873 75.0722 213.25 74.8331C213.629 74.594 214.071 74.4744 214.578 74.4744C214.886 74.4744 215.184 74.5253 215.473 74.6271C215.762 74.7289 216.021 74.8887 216.251 75.1065C216.48 75.3243 216.661 75.6072 216.794 75.9553C216.926 76.3009 216.993 76.7211 216.993 77.2159V77.5923H212.657V76.7969H215.952C215.952 76.5175 215.895 76.2701 215.782 76.0547C215.668 75.8369 215.508 75.6652 215.302 75.5398C215.099 75.4143 214.86 75.3516 214.585 75.3516C214.287 75.3516 214.026 75.425 213.804 75.5717C213.584 75.7161 213.413 75.9055 213.292 76.1399C213.174 76.3719 213.115 76.6241 213.115 76.8963V77.5178C213.115 77.8823 213.179 78.1925 213.307 78.4482C213.437 78.7038 213.618 78.8991 213.85 79.0341C214.082 79.1667 214.353 79.233 214.663 79.233C214.864 79.233 215.048 79.2045 215.214 79.1477C215.379 79.0885 215.523 79.0009 215.643 78.8849C215.764 78.7689 215.856 78.6257 215.92 78.4553L216.925 78.6364C216.845 78.9323 216.7 79.1915 216.492 79.4141C216.286 79.6342 216.027 79.8059 215.714 79.929C215.404 80.0497 215.05 80.1101 214.653 80.1101ZM220.213 80.1065C219.772 80.1065 219.379 79.9941 219.034 79.7692C218.69 79.5419 218.421 79.2187 218.224 78.7997C218.03 78.3783 217.933 77.8729 217.933 77.2834C217.933 76.6939 218.031 76.1896 218.228 75.7706C218.426 75.3516 218.699 75.0308 219.044 74.8082C219.39 74.5857 219.782 74.4744 220.22 74.4744C220.558 74.4744 220.831 74.5312 221.037 74.6449C221.245 74.7562 221.406 74.8864 221.52 75.0355C221.636 75.1847 221.725 75.3161 221.789 75.4297H221.853V72.7273H222.915V80H221.878V79.1513H221.789C221.725 79.2673 221.633 79.3999 221.512 79.549C221.394 79.6982 221.231 79.8284 221.022 79.9396C220.814 80.0509 220.544 80.1065 220.213 80.1065ZM220.447 79.201C220.752 79.201 221.011 79.1205 221.221 78.9595C221.434 78.7962 221.595 78.5701 221.704 78.2812C221.815 77.9924 221.871 77.6562 221.871 77.2727C221.871 76.8939 221.817 76.5625 221.708 76.2784C221.599 75.9943 221.439 75.773 221.228 75.6143C221.018 75.4557 220.757 75.3764 220.447 75.3764C220.127 75.3764 219.861 75.4593 219.648 75.625C219.435 75.7907 219.274 76.0168 219.165 76.3033C219.059 76.5897 219.005 76.9129 219.005 77.2727C219.005 77.6373 219.06 77.9652 219.169 78.2564C219.278 78.5476 219.439 78.7784 219.652 78.9489C219.867 79.117 220.132 79.201 220.447 79.201Z" fill="#50FF62"/>
<rect x="161.5" y="169.5" width="214" height="90" rx="2.5" fill="white"/>
<rect x="161.5" y="169.5" width="214" height="90" rx="2.5" stroke="black"/>
<path d="M172.483 244V243.361C172.483 243.167 172.517 242.961 172.586 242.743C172.657 242.523 172.759 242.311 172.891 242.107C173.026 241.901 173.188 241.723 173.378 241.571L173.832 241.94C173.683 242.153 173.553 242.376 173.442 242.608C173.333 242.838 173.278 243.084 173.278 243.347V244H172.483ZM174.301 244V243.361C174.301 243.167 174.335 242.961 174.404 242.743C174.475 242.523 174.577 242.311 174.71 242.107C174.844 241.901 175.007 241.723 175.196 241.571L175.651 241.94C175.501 242.153 175.371 242.376 175.26 242.608C175.151 242.838 175.097 243.084 175.097 243.347V244H174.301ZM178.948 243.545V244.256H176.121V243.545H178.948ZM176.945 242.239H177.783V247.438C177.783 247.674 177.817 247.852 177.886 247.97C177.957 248.086 178.047 248.164 178.156 248.205C178.267 248.242 178.384 248.261 178.507 248.261C178.6 248.261 178.676 248.257 178.735 248.247C178.794 248.235 178.841 248.226 178.877 248.219L179.047 248.972C178.99 248.993 178.911 249.014 178.809 249.036C178.708 249.059 178.578 249.071 178.422 249.071C178.185 249.071 177.953 249.02 177.726 248.918C177.501 248.817 177.314 248.661 177.165 248.453C177.018 248.245 176.945 247.982 176.945 247.665V242.239ZM181.164 245.719V249H180.326V241.727H181.164V244.398H181.235C181.363 244.116 181.554 243.892 181.81 243.727C182.068 243.558 182.411 243.474 182.84 243.474C183.212 243.474 183.537 243.549 183.816 243.698C184.096 243.845 184.312 244.071 184.466 244.376C184.623 244.679 184.701 245.065 184.701 245.534V249H183.863V245.591C183.863 245.158 183.75 244.823 183.525 244.586C183.303 244.347 182.994 244.227 182.598 244.227C182.324 244.227 182.078 244.285 181.86 244.401C181.644 244.517 181.474 244.687 181.348 244.909C181.225 245.132 181.164 245.402 181.164 245.719ZM187.839 249.128C187.493 249.128 187.18 249.063 186.898 248.933C186.616 248.8 186.392 248.609 186.227 248.361C186.061 248.11 185.978 247.807 185.978 247.452C185.978 247.139 186.04 246.886 186.163 246.692C186.286 246.495 186.45 246.341 186.656 246.23C186.862 246.119 187.09 246.036 187.338 245.982C187.589 245.925 187.841 245.88 188.095 245.847C188.426 245.804 188.695 245.772 188.901 245.751C189.109 245.727 189.261 245.688 189.355 245.634C189.452 245.579 189.501 245.484 189.501 245.349V245.321C189.501 244.971 189.405 244.698 189.213 244.504C189.024 244.31 188.736 244.213 188.35 244.213C187.95 244.213 187.637 244.301 187.409 244.476C187.182 244.651 187.022 244.838 186.93 245.037L186.134 244.753C186.276 244.421 186.466 244.163 186.703 243.979C186.942 243.792 187.202 243.661 187.484 243.588C187.768 243.512 188.047 243.474 188.322 243.474C188.497 243.474 188.698 243.496 188.926 243.538C189.155 243.579 189.377 243.663 189.59 243.79C189.805 243.918 189.984 244.111 190.126 244.369C190.268 244.627 190.339 244.973 190.339 245.406V249H189.501V248.261H189.458C189.401 248.38 189.307 248.506 189.174 248.641C189.042 248.776 188.865 248.891 188.645 248.986C188.425 249.08 188.156 249.128 187.839 249.128ZM187.967 248.375C188.298 248.375 188.578 248.31 188.805 248.18C189.035 248.049 189.207 247.881 189.323 247.675C189.442 247.469 189.501 247.253 189.501 247.026V246.259C189.465 246.301 189.387 246.34 189.267 246.376C189.148 246.409 189.011 246.438 188.855 246.464C188.701 246.488 188.55 246.509 188.404 246.528C188.259 246.545 188.142 246.559 188.052 246.571C187.834 246.599 187.631 246.646 187.441 246.71C187.254 246.771 187.103 246.865 186.987 246.99C186.873 247.113 186.816 247.281 186.816 247.494C186.816 247.786 186.924 248.006 187.139 248.155C187.357 248.302 187.633 248.375 187.967 248.375ZM192.707 245.719V249H191.869V243.545H192.678V244.398H192.749C192.877 244.121 193.071 243.898 193.332 243.73C193.592 243.56 193.928 243.474 194.34 243.474C194.71 243.474 195.033 243.55 195.31 243.702C195.587 243.851 195.802 244.078 195.956 244.384C196.11 244.687 196.187 245.07 196.187 245.534V249H195.349V245.591C195.349 245.162 195.237 244.829 195.015 244.589C194.792 244.348 194.487 244.227 194.099 244.227C193.831 244.227 193.592 244.285 193.381 244.401C193.173 244.517 193.009 244.687 192.888 244.909C192.767 245.132 192.707 245.402 192.707 245.719ZM198.499 247.011L198.485 245.974H198.656L201.042 243.545H202.079L199.536 246.116H199.465L198.499 247.011ZM197.718 249V241.727H198.556V249H197.718ZM201.184 249L199.053 246.301L199.65 245.719L202.249 249H201.184ZM206.51 251.045C206.368 251.045 206.241 251.034 206.13 251.01C206.019 250.989 205.942 250.967 205.899 250.946L206.112 250.207C206.316 250.259 206.496 250.278 206.652 250.264C206.808 250.25 206.947 250.18 207.067 250.055C207.191 249.932 207.303 249.732 207.405 249.455L207.561 249.028L205.544 243.545H206.453L207.959 247.892H208.016L209.521 243.545H210.43L208.115 249.795C208.011 250.077 207.882 250.31 207.728 250.495C207.574 250.682 207.395 250.821 207.192 250.911C206.991 251 206.763 251.045 206.51 251.045ZM213.557 249.114C213.065 249.114 212.633 248.996 212.261 248.762C211.892 248.528 211.603 248.2 211.395 247.778C211.189 247.357 211.086 246.865 211.086 246.301C211.086 245.733 211.189 245.237 211.395 244.813C211.603 244.389 211.892 244.06 212.261 243.826C212.633 243.592 213.065 243.474 213.557 243.474C214.05 243.474 214.48 243.592 214.85 243.826C215.221 244.06 215.51 244.389 215.716 244.813C215.925 245.237 216.029 245.733 216.029 246.301C216.029 246.865 215.925 247.357 215.716 247.778C215.51 248.2 215.221 248.528 214.85 248.762C214.48 248.996 214.05 249.114 213.557 249.114ZM213.557 248.361C213.931 248.361 214.239 248.265 214.48 248.073C214.722 247.881 214.901 247.629 215.017 247.317C215.133 247.004 215.191 246.666 215.191 246.301C215.191 245.937 215.133 245.597 215.017 245.282C214.901 244.967 214.722 244.713 214.48 244.518C214.239 244.324 213.931 244.227 213.557 244.227C213.183 244.227 212.875 244.324 212.634 244.518C212.392 244.713 212.214 244.967 212.098 245.282C211.982 245.597 211.924 245.937 211.924 246.301C211.924 246.666 211.982 247.004 212.098 247.317C212.214 247.629 212.392 247.881 212.634 248.073C212.875 248.265 213.183 248.361 213.557 248.361ZM220.746 246.77V243.545H221.584V249H220.746V248.077H220.689C220.561 248.354 220.362 248.589 220.092 248.783C219.822 248.975 219.481 249.071 219.069 249.071C218.729 249.071 218.425 248.996 218.16 248.847C217.895 248.696 217.687 248.469 217.535 248.165C217.384 247.86 217.308 247.475 217.308 247.011V243.545H218.146V246.955C218.146 247.352 218.257 247.67 218.48 247.906C218.705 248.143 218.991 248.261 219.339 248.261C219.548 248.261 219.76 248.208 219.975 248.102C220.193 247.995 220.375 247.832 220.522 247.612C220.671 247.391 220.746 247.111 220.746 246.77ZM228.36 243.545V244.256H225.42V243.545H228.36ZM226.3 249V242.793C226.3 242.48 226.374 242.22 226.521 242.011C226.667 241.803 226.858 241.647 227.092 241.543C227.327 241.438 227.574 241.386 227.835 241.386C228.04 241.386 228.209 241.403 228.339 241.436C228.469 241.469 228.566 241.5 228.63 241.528L228.388 242.253C228.346 242.239 228.287 242.221 228.211 242.2C228.138 242.178 228.04 242.168 227.92 242.168C227.643 242.168 227.443 242.237 227.32 242.377C227.199 242.517 227.138 242.722 227.138 242.991V249H226.3ZM231.526 249.114C231.033 249.114 230.601 248.996 230.23 248.762C229.86 248.528 229.572 248.2 229.363 247.778C229.157 247.357 229.054 246.865 229.054 246.301C229.054 245.733 229.157 245.237 229.363 244.813C229.572 244.389 229.86 244.06 230.23 243.826C230.601 243.592 231.033 243.474 231.526 243.474C232.018 243.474 232.449 243.592 232.819 243.826C233.19 244.06 233.479 244.389 233.685 244.813C233.893 245.237 233.998 245.733 233.998 246.301C233.998 246.865 233.893 247.357 233.685 247.778C233.479 248.2 233.19 248.528 232.819 248.762C232.449 248.996 232.018 249.114 231.526 249.114ZM231.526 248.361C231.9 248.361 232.208 248.265 232.449 248.073C232.691 247.881 232.869 247.629 232.985 247.317C233.101 247.004 233.159 246.666 233.159 246.301C233.159 245.937 233.101 245.597 232.985 245.282C232.869 244.967 232.691 244.713 232.449 244.518C232.208 244.324 231.9 244.227 231.526 244.227C231.152 244.227 230.844 244.324 230.603 244.518C230.361 244.713 230.182 244.967 230.066 245.282C229.95 245.597 229.892 245.937 229.892 246.301C229.892 246.666 229.95 247.004 230.066 247.317C230.182 247.629 230.361 247.881 230.603 248.073C230.844 248.265 231.152 248.361 231.526 248.361ZM235.277 249V243.545H236.086V244.369H236.143C236.243 244.099 236.423 243.88 236.683 243.712C236.943 243.544 237.237 243.46 237.564 243.46C237.625 243.46 237.702 243.461 237.795 243.464C237.887 243.466 237.957 243.47 238.004 243.474V244.327C237.976 244.32 237.911 244.309 237.809 244.295C237.709 244.278 237.604 244.27 237.493 244.27C237.228 244.27 236.991 244.326 236.782 244.437C236.577 244.546 236.413 244.697 236.292 244.891C236.174 245.083 236.115 245.302 236.115 245.548V249H235.277ZM242.35 251.045C242.208 251.045 242.081 251.034 241.97 251.01C241.859 250.989 241.782 250.967 241.739 250.946L241.952 250.207C242.156 250.259 242.336 250.278 242.492 250.264C242.648 250.25 242.787 250.18 242.907 250.055C243.03 249.932 243.143 249.732 243.245 249.455L243.401 249.028L241.384 243.545H242.293L243.799 247.892H243.855L245.361 243.545H246.27L243.955 249.795C243.851 250.077 243.722 250.31 243.568 250.495C243.414 250.682 243.235 250.821 243.032 250.911C242.83 251 242.603 251.045 242.35 251.045ZM249.397 249.114C248.905 249.114 248.473 248.996 248.101 248.762C247.732 248.528 247.443 248.2 247.234 247.778C247.028 247.357 246.925 246.865 246.925 246.301C246.925 245.733 247.028 245.237 247.234 244.813C247.443 244.389 247.732 244.06 248.101 243.826C248.473 243.592 248.905 243.474 249.397 243.474C249.889 243.474 250.32 243.592 250.69 243.826C251.061 244.06 251.35 244.389 251.556 244.813C251.764 245.237 251.869 245.733 251.869 246.301C251.869 246.865 251.764 247.357 251.556 247.778C251.35 248.2 251.061 248.528 250.69 248.762C250.32 248.996 249.889 249.114 249.397 249.114ZM249.397 248.361C249.771 248.361 250.079 248.265 250.32 248.073C250.562 247.881 250.741 247.629 250.857 247.317C250.973 247.004 251.031 246.666 251.031 246.301C251.031 245.937 250.973 245.597 250.857 245.282C250.741 244.967 250.562 244.713 250.32 244.518C250.079 244.324 249.771 244.227 249.397 244.227C249.023 244.227 248.715 244.324 248.474 244.518C248.232 244.713 248.054 244.967 247.938 245.282C247.821 245.597 247.763 245.937 247.763 246.301C247.763 246.666 247.821 247.004 247.938 247.317C248.054 247.629 248.232 247.881 248.474 248.073C248.715 248.265 249.023 248.361 249.397 248.361ZM256.585 246.77V243.545H257.423V249H256.585V248.077H256.529C256.401 248.354 256.202 248.589 255.932 248.783C255.662 248.975 255.321 249.071 254.909 249.071C254.568 249.071 254.265 248.996 254 248.847C253.735 248.696 253.527 248.469 253.375 248.165C253.224 247.86 253.148 247.475 253.148 247.011V243.545H253.986V246.955C253.986 247.352 254.097 247.67 254.32 247.906C254.545 248.143 254.831 248.261 255.179 248.261C255.387 248.261 255.599 248.208 255.815 248.102C256.033 247.995 256.215 247.832 256.362 247.612C256.511 247.391 256.585 247.111 256.585 246.77ZM258.958 249V243.545H259.768V244.369H259.825C259.924 244.099 260.104 243.88 260.365 243.712C260.625 243.544 260.919 243.46 261.245 243.46C261.307 243.46 261.384 243.461 261.476 243.464C261.569 243.466 261.638 243.47 261.686 243.474V244.327C261.657 244.32 261.592 244.309 261.49 244.295C261.391 244.278 261.286 244.27 261.174 244.27C260.909 244.27 260.672 244.326 260.464 244.437C260.258 244.546 260.095 244.697 259.974 244.891C259.856 245.083 259.797 245.302 259.797 245.548V249H258.958ZM267.708 249.114C267.196 249.114 266.756 248.993 266.387 248.751C266.017 248.51 265.733 248.177 265.534 247.754C265.335 247.33 265.236 246.846 265.236 246.301C265.236 245.747 265.338 245.258 265.541 244.835C265.747 244.408 266.034 244.076 266.401 243.837C266.77 243.595 267.201 243.474 267.693 243.474C268.077 243.474 268.423 243.545 268.73 243.688C269.038 243.83 269.29 244.028 269.487 244.284C269.683 244.54 269.805 244.838 269.852 245.179H269.014C268.95 244.93 268.808 244.71 268.588 244.518C268.37 244.324 268.077 244.227 267.708 244.227C267.381 244.227 267.094 244.312 266.848 244.483C266.604 244.651 266.414 244.889 266.276 245.197C266.142 245.502 266.074 245.861 266.074 246.273C266.074 246.694 266.14 247.061 266.273 247.374C266.408 247.686 266.597 247.929 266.841 248.102C267.087 248.274 267.376 248.361 267.708 248.361C267.925 248.361 268.123 248.323 268.301 248.247C268.478 248.171 268.628 248.062 268.752 247.92C268.875 247.778 268.962 247.608 269.014 247.409H269.852C269.805 247.731 269.688 248.021 269.501 248.279C269.316 248.535 269.071 248.738 268.766 248.89C268.463 249.039 268.11 249.114 267.708 249.114ZM273.294 249.114C272.801 249.114 272.369 248.996 271.997 248.762C271.628 248.528 271.339 248.2 271.131 247.778C270.925 247.357 270.822 246.865 270.822 246.301C270.822 245.733 270.925 245.237 271.131 244.813C271.339 244.389 271.628 244.06 271.997 243.826C272.369 243.592 272.801 243.474 273.294 243.474C273.786 243.474 274.217 243.592 274.586 243.826C274.958 244.06 275.247 244.389 275.453 244.813C275.661 245.237 275.765 245.733 275.765 246.301C275.765 246.865 275.661 247.357 275.453 247.778C275.247 248.2 274.958 248.528 274.586 248.762C274.217 248.996 273.786 249.114 273.294 249.114ZM273.294 248.361C273.668 248.361 273.975 248.265 274.217 248.073C274.458 247.881 274.637 247.629 274.753 247.317C274.869 247.004 274.927 246.666 274.927 246.301C274.927 245.937 274.869 245.597 274.753 245.282C274.637 244.967 274.458 244.713 274.217 244.518C273.975 244.324 273.668 244.227 273.294 244.227C272.919 244.227 272.612 244.324 272.37 244.518C272.129 244.713 271.95 244.967 271.834 245.282C271.718 245.597 271.66 245.937 271.66 246.301C271.66 246.666 271.718 247.004 271.834 247.317C271.95 247.629 272.129 247.881 272.37 248.073C272.612 248.265 272.919 248.361 273.294 248.361ZM278.65 249.128C278.304 249.128 277.99 249.063 277.708 248.933C277.427 248.8 277.203 248.609 277.037 248.361C276.872 248.11 276.789 247.807 276.789 247.452C276.789 247.139 276.85 246.886 276.973 246.692C277.096 246.495 277.261 246.341 277.467 246.23C277.673 246.119 277.9 246.036 278.149 245.982C278.4 245.925 278.652 245.88 278.905 245.847C279.237 245.804 279.505 245.772 279.711 245.751C279.92 245.727 280.071 245.688 280.166 245.634C280.263 245.579 280.311 245.484 280.311 245.349V245.321C280.311 244.971 280.216 244.698 280.024 244.504C279.834 244.31 279.547 244.213 279.161 244.213C278.761 244.213 278.447 244.301 278.22 244.476C277.993 244.651 277.833 244.838 277.74 245.037L276.945 244.753C277.087 244.421 277.276 244.163 277.513 243.979C277.752 243.792 278.013 243.661 278.294 243.588C278.578 243.512 278.858 243.474 279.132 243.474C279.308 243.474 279.509 243.496 279.736 243.538C279.966 243.579 280.187 243.663 280.4 243.79C280.616 243.918 280.794 244.111 280.936 244.369C281.078 244.627 281.15 244.973 281.15 245.406V249H280.311V248.261H280.269C280.212 248.38 280.117 248.506 279.985 248.641C279.852 248.776 279.676 248.891 279.456 248.986C279.235 249.08 278.967 249.128 278.65 249.128ZM278.777 248.375C279.109 248.375 279.388 248.31 279.615 248.18C279.845 248.049 280.018 247.881 280.134 247.675C280.252 247.469 280.311 247.253 280.311 247.026V246.259C280.276 246.301 280.198 246.34 280.077 246.376C279.959 246.409 279.821 246.438 279.665 246.464C279.511 246.488 279.361 246.509 279.214 246.528C279.07 246.545 278.953 246.559 278.863 246.571C278.645 246.599 278.441 246.646 278.252 246.71C278.065 246.771 277.913 246.865 277.797 246.99C277.684 247.113 277.627 247.281 277.627 247.494C277.627 247.786 277.734 248.006 277.95 248.155C278.168 248.302 278.444 248.375 278.777 248.375ZM284.895 249.114C284.384 249.114 283.943 248.993 283.574 248.751C283.205 248.51 282.921 248.177 282.722 247.754C282.523 247.33 282.423 246.846 282.423 246.301C282.423 245.747 282.525 245.258 282.729 244.835C282.935 244.408 283.221 244.076 283.588 243.837C283.958 243.595 284.388 243.474 284.881 243.474C285.264 243.474 285.61 243.545 285.918 243.688C286.226 243.83 286.478 244.028 286.674 244.284C286.871 244.54 286.993 244.838 287.04 245.179H286.202C286.138 244.93 285.996 244.71 285.776 244.518C285.558 244.324 285.264 244.227 284.895 244.227C284.568 244.227 284.282 244.312 284.036 244.483C283.792 244.651 283.601 244.889 283.464 245.197C283.329 245.502 283.262 245.861 283.262 246.273C283.262 246.694 283.328 247.061 283.46 247.374C283.595 247.686 283.785 247.929 284.029 248.102C284.275 248.274 284.564 248.361 284.895 248.361C285.113 248.361 285.311 248.323 285.488 248.247C285.666 248.171 285.816 248.062 285.939 247.92C286.062 247.778 286.15 247.608 286.202 247.409H287.04C286.993 247.731 286.875 248.021 286.688 248.279C286.504 248.535 286.259 248.738 285.953 248.89C285.65 249.039 285.298 249.114 284.895 249.114ZM289.103 245.719V249H288.265V241.727H289.103V244.398H289.174C289.302 244.116 289.494 243.892 289.749 243.727C290.008 243.558 290.351 243.474 290.779 243.474C291.151 243.474 291.477 243.549 291.756 243.698C292.035 243.845 292.252 244.071 292.406 244.376C292.562 244.679 292.64 245.065 292.64 245.534V249H291.802V245.591C291.802 245.158 291.69 244.823 291.465 244.586C291.242 244.347 290.933 244.227 290.538 244.227C290.263 244.227 290.017 244.285 289.799 244.401C289.584 244.517 289.413 244.687 289.288 244.909C289.165 245.132 289.103 245.402 289.103 245.719ZM294.173 249V243.545H295.011V249H294.173ZM294.599 242.636C294.436 242.636 294.295 242.581 294.177 242.469C294.061 242.358 294.003 242.224 294.003 242.068C294.003 241.912 294.061 241.778 294.177 241.667C294.295 241.556 294.436 241.5 294.599 241.5C294.763 241.5 294.902 241.556 295.018 241.667C295.137 241.778 295.196 241.912 295.196 242.068C295.196 242.224 295.137 242.358 295.018 242.469C294.902 242.581 294.763 242.636 294.599 242.636ZM297.384 245.719V249H296.546V243.545H297.356V244.398H297.427C297.555 244.121 297.749 243.898 298.009 243.73C298.27 243.56 298.606 243.474 299.018 243.474C299.387 243.474 299.71 243.55 299.987 243.702C300.264 243.851 300.48 244.078 300.634 244.384C300.788 244.687 300.865 245.07 300.865 245.534V249H300.026V245.591C300.026 245.162 299.915 244.829 299.693 244.589C299.47 244.348 299.165 244.227 298.776 244.227C298.509 244.227 298.27 244.285 298.059 244.401C297.851 244.517 297.686 244.687 297.566 244.909C297.445 245.132 297.384 245.402 297.384 245.719ZM304.598 251.159C304.193 251.159 303.845 251.107 303.554 251.003C303.262 250.901 303.02 250.766 302.826 250.598C302.634 250.432 302.481 250.255 302.368 250.065L303.035 249.597C303.111 249.696 303.207 249.81 303.323 249.938C303.439 250.068 303.597 250.18 303.799 250.275C304.002 250.372 304.269 250.42 304.598 250.42C305.038 250.42 305.401 250.314 305.688 250.101C305.974 249.888 306.118 249.554 306.118 249.099V247.991H306.047C305.985 248.091 305.897 248.214 305.784 248.361C305.672 248.505 305.511 248.634 305.301 248.748C305.092 248.859 304.811 248.915 304.456 248.915C304.015 248.915 303.62 248.811 303.27 248.602C302.922 248.394 302.646 248.091 302.442 247.693C302.241 247.295 302.14 246.812 302.14 246.244C302.14 245.686 302.239 245.199 302.435 244.785C302.632 244.368 302.905 244.046 303.255 243.819C303.606 243.589 304.011 243.474 304.47 243.474C304.825 243.474 305.107 243.534 305.315 243.652C305.526 243.768 305.687 243.901 305.798 244.05C305.912 244.196 305.999 244.317 306.061 244.412H306.146V243.545H306.956V249.156C306.956 249.625 306.849 250.006 306.636 250.3C306.425 250.596 306.141 250.812 305.784 250.95C305.429 251.089 305.033 251.159 304.598 251.159ZM304.569 248.162C304.905 248.162 305.19 248.085 305.422 247.931C305.654 247.777 305.83 247.556 305.951 247.267C306.071 246.978 306.132 246.633 306.132 246.23C306.132 245.837 306.073 245.49 305.954 245.19C305.836 244.889 305.661 244.653 305.429 244.483C305.197 244.312 304.91 244.227 304.569 244.227C304.214 244.227 303.918 244.317 303.681 244.497C303.447 244.677 303.271 244.919 303.152 245.222C303.036 245.525 302.978 245.861 302.978 246.23C302.978 246.609 303.038 246.944 303.156 247.235C303.277 247.524 303.454 247.751 303.689 247.917C303.925 248.08 304.219 248.162 304.569 248.162ZM309.228 241.727V242.366C309.228 242.561 309.193 242.768 309.122 242.988C309.053 243.206 308.951 243.418 308.816 243.624C308.684 243.827 308.523 244.005 308.333 244.156L307.879 243.787C308.028 243.574 308.157 243.353 308.266 243.123C308.377 242.891 308.433 242.643 308.433 242.381V241.727H309.228ZM311.047 241.727V242.366C311.047 242.561 311.011 242.768 310.94 242.988C310.871 243.206 310.77 243.418 310.635 243.624C310.502 243.827 310.341 244.005 310.152 244.156L309.697 243.787C309.846 243.574 309.975 243.353 310.084 243.123C310.195 242.891 310.251 242.643 310.251 242.381V241.727H311.047Z" fill="#C1C1C1"/>
<path d="M183 204L185.47 211.601H193.462L186.996 216.298L189.466 223.899L183 219.202L176.534 223.899L179.004 216.298L172.538 211.601H180.53L183 204Z" fill="black"/>
<path d="M213 204L215.47 211.601H223.462L216.996 216.298L219.466 223.899L213 219.202L206.534 223.899L209.004 216.298L202.538 211.601H210.53L213 204Z" fill="black"/>
<path d="M243 204L245.47 211.601H253.462L246.996 216.298L249.466 223.899L243 219.202L236.534 223.899L239.004 216.298L232.538 211.601H240.53L243 204Z" fill="black"/>
<path d="M213 204L215.47 211.601H223.462L216.996 216.298L219.466 223.899L213 219.202L206.534 223.899L209.004 216.298L202.538 211.601H210.53L213 204Z" fill="black"/>
<path d="M273 204L275.47 211.601H283.462L276.996 216.298L279.466 223.899L273 219.202L266.534 223.899L269.004 216.298L262.538 211.601H270.53L273 204Z" fill="black"/>
<path d="M303 204L305.47 211.601H313.462L306.996 216.298L309.466 223.899L303 219.202L296.534 223.899L299.004 216.298L292.538 211.601H300.53L303 204Z" fill="black"/>
<path d="M175.409 188.088C174.987 188.088 174.623 187.992 174.318 187.801C174.015 187.608 173.782 187.342 173.619 187.003C173.456 186.664 173.375 186.276 173.375 185.838C173.375 185.395 173.458 185.004 173.625 184.665C173.792 184.324 174.027 184.058 174.33 183.866C174.633 183.675 174.99 183.58 175.401 183.58C175.732 183.58 176.027 183.641 176.287 183.764C176.546 183.885 176.756 184.056 176.915 184.276C177.076 184.495 177.171 184.752 177.202 185.045H176.375C176.33 184.841 176.225 184.665 176.062 184.517C175.902 184.369 175.686 184.295 175.415 184.295C175.178 184.295 174.971 184.358 174.793 184.483C174.616 184.606 174.479 184.782 174.381 185.011C174.282 185.239 174.233 185.508 174.233 185.818C174.233 186.136 174.281 186.411 174.378 186.642C174.474 186.873 174.611 187.052 174.787 187.179C174.965 187.306 175.174 187.369 175.415 187.369C175.576 187.369 175.722 187.34 175.852 187.281C175.985 187.221 176.096 187.134 176.185 187.023C176.276 186.911 176.339 186.777 176.375 186.619H177.202C177.171 186.902 177.08 187.153 176.926 187.375C176.773 187.597 176.567 187.771 176.31 187.898C176.054 188.025 175.754 188.088 175.409 188.088ZM179.948 188.088C179.539 188.088 179.182 187.994 178.877 187.807C178.572 187.619 178.335 187.357 178.167 187.02C177.998 186.683 177.914 186.289 177.914 185.838C177.914 185.385 177.998 184.99 178.167 184.651C178.335 184.312 178.572 184.048 178.877 183.861C179.182 183.673 179.539 183.58 179.948 183.58C180.357 183.58 180.714 183.673 181.019 183.861C181.324 184.048 181.561 184.312 181.729 184.651C181.898 184.99 181.982 185.385 181.982 185.838C181.982 186.289 181.898 186.683 181.729 187.02C181.561 187.357 181.324 187.619 181.019 187.807C180.714 187.994 180.357 188.088 179.948 188.088ZM179.951 187.375C180.216 187.375 180.436 187.305 180.61 187.165C180.784 187.025 180.913 186.838 180.996 186.605C181.082 186.372 181.124 186.116 181.124 185.835C181.124 185.557 181.082 185.301 180.996 185.068C180.913 184.833 180.784 184.645 180.61 184.503C180.436 184.361 180.216 184.29 179.951 184.29C179.684 184.29 179.462 184.361 179.286 184.503C179.112 184.645 178.982 184.833 178.897 185.068C178.814 185.301 178.772 185.557 178.772 185.835C178.772 186.116 178.814 186.372 178.897 186.605C178.982 186.838 179.112 187.025 179.286 187.165C179.462 187.305 179.684 187.375 179.951 187.375ZM183.78 185.409V188H182.93V183.636H183.746V184.347H183.8C183.9 184.116 184.057 183.93 184.271 183.79C184.487 183.65 184.759 183.58 185.087 183.58C185.384 183.58 185.644 183.642 185.868 183.767C186.091 183.89 186.265 184.074 186.388 184.318C186.511 184.562 186.572 184.865 186.572 185.224V188H185.723V185.327C185.723 185.01 185.641 184.763 185.476 184.585C185.311 184.405 185.085 184.315 184.797 184.315C184.6 184.315 184.425 184.358 184.271 184.443C184.12 184.528 184 184.653 183.911 184.818C183.823 184.981 183.78 185.178 183.78 185.409ZM189.788 183.636V184.318H187.322V183.636H189.788ZM187.999 188V183.131C187.999 182.858 188.058 182.632 188.178 182.452C188.297 182.27 188.455 182.134 188.652 182.045C188.849 181.955 189.063 181.909 189.294 181.909C189.464 181.909 189.61 181.923 189.732 181.952C189.853 181.978 189.943 182.003 190.001 182.026L189.803 182.713C189.763 182.702 189.712 182.688 189.649 182.673C189.587 182.656 189.511 182.648 189.422 182.648C189.215 182.648 189.068 182.699 188.979 182.801C188.892 182.903 188.848 183.051 188.848 183.244V188H187.999ZM190.665 188V183.636H191.514V188H190.665ZM191.094 182.963C190.946 182.963 190.819 182.914 190.713 182.815C190.609 182.715 190.557 182.596 190.557 182.457C190.557 182.317 190.609 182.198 190.713 182.099C190.819 181.999 190.946 181.949 191.094 181.949C191.241 181.949 191.367 181.999 191.472 182.099C191.578 182.198 191.631 182.317 191.631 182.457C191.631 182.596 191.578 182.715 191.472 182.815C191.367 182.914 191.241 182.963 191.094 182.963ZM192.657 188V183.636H193.478V184.33H193.523C193.603 184.095 193.743 183.91 193.944 183.776C194.147 183.639 194.376 183.571 194.631 183.571C194.684 183.571 194.747 183.573 194.819 183.577C194.893 183.58 194.951 183.585 194.992 183.591V184.403C194.958 184.394 194.897 184.384 194.81 184.372C194.723 184.359 194.636 184.352 194.549 184.352C194.348 184.352 194.169 184.395 194.012 184.48C193.857 184.563 193.734 184.68 193.643 184.83C193.552 184.977 193.506 185.146 193.506 185.335V188H192.657ZM195.727 188V183.636H196.543V184.347H196.597C196.688 184.106 196.836 183.919 197.043 183.784C197.249 183.648 197.496 183.58 197.784 183.58C198.076 183.58 198.32 183.648 198.517 183.784C198.716 183.92 198.863 184.108 198.957 184.347H199.003C199.107 184.114 199.273 183.928 199.5 183.79C199.727 183.65 199.998 183.58 200.312 183.58C200.708 183.58 201.031 183.704 201.281 183.952C201.533 184.2 201.659 184.574 201.659 185.074V188H200.81V185.153C200.81 184.858 200.729 184.644 200.568 184.511C200.407 184.379 200.215 184.312 199.991 184.312C199.715 184.312 199.5 184.398 199.347 184.568C199.193 184.737 199.116 184.954 199.116 185.219V188H198.27V185.099C198.27 184.863 198.196 184.672 198.048 184.528C197.901 184.384 197.708 184.312 197.472 184.312C197.311 184.312 197.162 184.355 197.026 184.44C196.891 184.524 196.782 184.64 196.699 184.79C196.617 184.939 196.577 185.113 196.577 185.31V188H195.727ZM205.452 189.636C205.325 189.636 205.209 189.626 205.105 189.605C205.001 189.586 204.923 189.565 204.872 189.543L205.077 188.847C205.232 188.888 205.37 188.906 205.491 188.901C205.613 188.895 205.72 188.849 205.812 188.764C205.907 188.679 205.991 188.54 206.062 188.347L206.168 188.057L204.571 183.636H205.48L206.585 187.023H206.631L207.736 183.636H208.648L206.849 188.582C206.766 188.81 206.66 189.002 206.531 189.159C206.402 189.318 206.249 189.438 206.071 189.517C205.893 189.597 205.687 189.636 205.452 189.636ZM211.136 188.088C210.727 188.088 210.37 187.994 210.065 187.807C209.76 187.619 209.523 187.357 209.354 187.02C209.186 186.683 209.102 186.289 209.102 185.838C209.102 185.385 209.186 184.99 209.354 184.651C209.523 184.312 209.76 184.048 210.065 183.861C210.37 183.673 210.727 183.58 211.136 183.58C211.545 183.58 211.902 183.673 212.207 183.861C212.512 184.048 212.748 184.312 212.917 184.651C213.085 184.99 213.17 185.385 213.17 185.838C213.17 186.289 213.085 186.683 212.917 187.02C212.748 187.357 212.512 187.619 212.207 187.807C211.902 187.994 211.545 188.088 211.136 188.088ZM211.138 187.375C211.404 187.375 211.623 187.305 211.798 187.165C211.972 187.025 212.101 186.838 212.184 186.605C212.269 186.372 212.312 186.116 212.312 185.835C212.312 185.557 212.269 185.301 212.184 185.068C212.101 184.833 211.972 184.645 211.798 184.503C211.623 184.361 211.404 184.29 211.138 184.29C210.871 184.29 210.65 184.361 210.474 184.503C210.299 184.645 210.17 184.833 210.085 185.068C210.001 185.301 209.96 185.557 209.96 185.835C209.96 186.116 210.001 186.372 210.085 186.605C210.17 186.838 210.299 187.025 210.474 187.165C210.65 187.305 210.871 187.375 211.138 187.375ZM216.882 186.19V183.636H217.734V188H216.899V187.244H216.854C216.753 187.477 216.592 187.671 216.371 187.827C216.151 187.98 215.877 188.057 215.55 188.057C215.269 188.057 215.021 187.995 214.805 187.872C214.591 187.747 214.423 187.562 214.3 187.318C214.179 187.074 214.118 186.772 214.118 186.412V183.636H214.967V186.31C214.967 186.607 215.05 186.844 215.214 187.02C215.379 187.196 215.593 187.284 215.857 187.284C216.016 187.284 216.174 187.244 216.331 187.165C216.49 187.085 216.622 186.965 216.726 186.804C216.832 186.643 216.884 186.438 216.882 186.19ZM218.876 188V183.636H219.697V184.33H219.742C219.822 184.095 219.962 183.91 220.163 183.776C220.365 183.639 220.594 183.571 220.85 183.571C220.903 183.571 220.966 183.573 221.038 183.577C221.112 183.58 221.169 183.585 221.211 183.591V184.403C221.177 184.394 221.116 184.384 221.029 184.372C220.942 184.359 220.855 184.352 220.768 184.352C220.567 184.352 220.388 184.395 220.231 184.48C220.076 184.563 219.952 184.68 219.862 184.83C219.771 184.977 219.725 185.146 219.725 185.335V188H218.876ZM227.333 184.702L226.563 184.838C226.531 184.74 226.48 184.646 226.41 184.557C226.342 184.468 226.249 184.395 226.131 184.338C226.014 184.281 225.867 184.253 225.691 184.253C225.451 184.253 225.25 184.307 225.089 184.415C224.928 184.521 224.847 184.658 224.847 184.827C224.847 184.973 224.901 185.09 225.009 185.179C225.117 185.268 225.291 185.341 225.532 185.398L226.225 185.557C226.627 185.65 226.926 185.793 227.123 185.986C227.32 186.179 227.418 186.43 227.418 186.739C227.418 187 227.343 187.233 227.191 187.438C227.041 187.64 226.832 187.799 226.563 187.915C226.296 188.03 225.987 188.088 225.634 188.088C225.146 188.088 224.747 187.984 224.438 187.776C224.129 187.565 223.94 187.267 223.87 186.881L224.691 186.756C224.742 186.97 224.847 187.132 225.006 187.241C225.165 187.349 225.373 187.403 225.629 187.403C225.907 187.403 226.129 187.346 226.296 187.23C226.463 187.113 226.546 186.97 226.546 186.801C226.546 186.665 226.495 186.55 226.393 186.457C226.292 186.365 226.138 186.295 225.93 186.247L225.191 186.085C224.784 185.992 224.483 185.845 224.288 185.642C224.094 185.439 223.998 185.183 223.998 184.872C223.998 184.615 224.07 184.389 224.214 184.196C224.358 184.003 224.557 183.852 224.81 183.744C225.064 183.634 225.355 183.58 225.683 183.58C226.154 183.58 226.525 183.682 226.796 183.886C227.067 184.089 227.246 184.361 227.333 184.702ZM230.233 188.088C229.803 188.088 229.433 187.996 229.122 187.812C228.813 187.627 228.575 187.366 228.406 187.031C228.24 186.694 228.156 186.299 228.156 185.847C228.156 185.4 228.24 185.006 228.406 184.665C228.575 184.324 228.81 184.058 229.111 183.866C229.414 183.675 229.768 183.58 230.173 183.58C230.42 183.58 230.658 183.62 230.889 183.702C231.12 183.783 231.328 183.911 231.511 184.085C231.695 184.259 231.84 184.486 231.946 184.764C232.052 185.041 232.105 185.377 232.105 185.773V186.074H228.636V185.438H231.273C231.273 185.214 231.227 185.016 231.136 184.844C231.045 184.67 230.918 184.532 230.753 184.432C230.59 184.331 230.399 184.281 230.179 184.281C229.94 184.281 229.732 184.34 229.554 184.457C229.378 184.573 229.241 184.724 229.145 184.912C229.05 185.098 229.003 185.299 229.003 185.517V186.014C229.003 186.306 229.054 186.554 229.156 186.759C229.26 186.963 229.405 187.119 229.591 187.227C229.777 187.333 229.993 187.386 230.241 187.386C230.402 187.386 230.549 187.364 230.682 187.318C230.814 187.271 230.929 187.201 231.026 187.108C231.122 187.015 231.196 186.901 231.247 186.764L232.051 186.909C231.987 187.146 231.871 187.353 231.705 187.531C231.54 187.707 231.332 187.845 231.082 187.943C230.834 188.04 230.551 188.088 230.233 188.088ZM236.317 184.702L235.548 184.838C235.515 184.74 235.464 184.646 235.394 184.557C235.326 184.468 235.233 184.395 235.116 184.338C234.998 184.281 234.852 184.253 234.675 184.253C234.435 184.253 234.234 184.307 234.073 184.415C233.912 184.521 233.832 184.658 233.832 184.827C233.832 184.973 233.886 185.09 233.994 185.179C234.102 185.268 234.276 185.341 234.516 185.398L235.21 185.557C235.611 185.65 235.91 185.793 236.107 185.986C236.304 186.179 236.403 186.43 236.403 186.739C236.403 187 236.327 187.233 236.175 187.438C236.026 187.64 235.817 187.799 235.548 187.915C235.281 188.03 234.971 188.088 234.619 188.088C234.13 188.088 233.731 187.984 233.423 187.776C233.114 187.565 232.924 187.267 232.854 186.881L233.675 186.756C233.727 186.97 233.832 187.132 233.991 187.241C234.15 187.349 234.357 187.403 234.613 187.403C234.891 187.403 235.114 187.346 235.281 187.23C235.447 187.113 235.531 186.97 235.531 186.801C235.531 186.665 235.479 186.55 235.377 186.457C235.277 186.365 235.122 186.295 234.914 186.247L234.175 186.085C233.768 185.992 233.467 185.845 233.272 185.642C233.079 185.439 232.982 185.183 232.982 184.872C232.982 184.615 233.054 184.389 233.198 184.196C233.342 184.003 233.541 183.852 233.795 183.744C234.049 183.634 234.339 183.58 234.667 183.58C235.138 183.58 235.51 183.682 235.781 183.886C236.051 184.089 236.23 184.361 236.317 184.702ZM240.607 184.702L239.837 184.838C239.804 184.74 239.753 184.646 239.683 184.557C239.615 184.468 239.522 184.395 239.405 184.338C239.287 184.281 239.141 184.253 238.964 184.253C238.724 184.253 238.523 184.307 238.362 184.415C238.201 184.521 238.121 184.658 238.121 184.827C238.121 184.973 238.175 185.09 238.283 185.179C238.391 185.268 238.565 185.341 238.805 185.398L239.499 185.557C239.9 185.65 240.199 185.793 240.396 185.986C240.593 186.179 240.692 186.43 240.692 186.739C240.692 187 240.616 187.233 240.464 187.438C240.315 187.64 240.106 187.799 239.837 187.915C239.57 188.03 239.26 188.088 238.908 188.088C238.419 188.088 238.02 187.984 237.712 187.776C237.403 187.565 237.214 187.267 237.143 186.881L237.964 186.756C238.016 186.97 238.121 187.132 238.28 187.241C238.439 187.349 238.646 187.403 238.902 187.403C239.18 187.403 239.403 187.346 239.57 187.23C239.736 187.113 239.82 186.97 239.82 186.801C239.82 186.665 239.768 186.55 239.666 186.457C239.566 186.365 239.411 186.295 239.203 186.247L238.464 186.085C238.057 185.992 237.756 185.845 237.561 185.642C237.368 185.439 237.271 185.183 237.271 184.872C237.271 184.615 237.343 184.389 237.487 184.196C237.631 184.003 237.83 183.852 238.084 183.744C238.338 183.634 238.628 183.58 238.956 183.58C239.428 183.58 239.799 183.682 240.07 183.886C240.34 184.089 240.519 184.361 240.607 184.702ZM241.626 188V183.636H242.475V188H241.626ZM242.055 182.963C241.907 182.963 241.78 182.914 241.674 182.815C241.57 182.715 241.518 182.596 241.518 182.457C241.518 182.317 241.57 182.198 241.674 182.099C241.78 181.999 241.907 181.949 242.055 181.949C242.202 181.949 242.328 181.999 242.433 182.099C242.539 182.198 242.592 182.317 242.592 182.457C242.592 182.596 242.539 182.715 242.433 182.815C242.328 182.914 242.202 182.963 242.055 182.963ZM245.456 188.088C245.047 188.088 244.69 187.994 244.385 187.807C244.08 187.619 243.843 187.357 243.675 187.02C243.506 186.683 243.422 186.289 243.422 185.838C243.422 185.385 243.506 184.99 243.675 184.651C243.843 184.312 244.08 184.048 244.385 183.861C244.69 183.673 245.047 183.58 245.456 183.58C245.865 183.58 246.222 183.673 246.527 183.861C246.832 184.048 247.069 184.312 247.237 184.651C247.406 184.99 247.49 185.385 247.49 185.838C247.49 186.289 247.406 186.683 247.237 187.02C247.069 187.357 246.832 187.619 246.527 187.807C246.222 187.994 245.865 188.088 245.456 188.088ZM245.459 187.375C245.724 187.375 245.944 187.305 246.118 187.165C246.292 187.025 246.421 186.838 246.504 186.605C246.589 186.372 246.632 186.116 246.632 185.835C246.632 185.557 246.589 185.301 246.504 185.068C246.421 184.833 246.292 184.645 246.118 184.503C245.944 184.361 245.724 184.29 245.459 184.29C245.192 184.29 244.97 184.361 244.794 184.503C244.62 184.645 244.49 184.833 244.405 185.068C244.321 185.301 244.28 185.557 244.28 185.835C244.28 186.116 244.321 186.372 244.405 186.605C244.49 186.838 244.62 187.025 244.794 187.165C244.97 187.305 245.192 187.375 245.459 187.375ZM249.288 185.409V188H248.438V183.636H249.254V184.347H249.308C249.408 184.116 249.565 183.93 249.779 183.79C249.995 183.65 250.267 183.58 250.594 183.58C250.892 183.58 251.152 183.642 251.376 183.767C251.599 183.89 251.772 184.074 251.896 184.318C252.019 184.562 252.08 184.865 252.08 185.224V188H251.231V185.327C251.231 185.01 251.148 184.763 250.984 184.585C250.819 184.405 250.593 184.315 250.305 184.315C250.108 184.315 249.933 184.358 249.779 184.443C249.628 184.528 249.507 184.653 249.418 184.818C249.331 184.981 249.288 185.178 249.288 185.409ZM254.148 186.327V186.273C254.152 185.92 254.187 185.64 254.254 185.432C254.322 185.223 254.418 185.055 254.543 184.926C254.668 184.797 254.819 184.68 254.995 184.574C255.109 184.502 255.211 184.421 255.302 184.332C255.393 184.243 255.465 184.141 255.518 184.026C255.571 183.91 255.597 183.782 255.597 183.642C255.597 183.473 255.558 183.328 255.478 183.205C255.398 183.081 255.292 182.987 255.16 182.92C255.029 182.852 254.883 182.818 254.722 182.818C254.576 182.818 254.437 182.848 254.305 182.909C254.172 182.97 254.062 183.064 253.975 183.193C253.888 183.32 253.838 183.484 253.825 183.685H252.961C252.974 183.344 253.06 183.056 253.219 182.821C253.379 182.584 253.589 182.405 253.85 182.284C254.113 182.163 254.404 182.102 254.722 182.102C255.071 182.102 255.376 182.168 255.637 182.298C255.898 182.427 256.101 182.608 256.245 182.841C256.391 183.072 256.464 183.342 256.464 183.651C256.464 183.863 256.431 184.054 256.364 184.224C256.298 184.393 256.203 184.544 256.08 184.676C255.959 184.809 255.813 184.926 255.643 185.028C255.482 185.129 255.351 185.233 255.251 185.341C255.152 185.449 255.08 185.577 255.035 185.724C254.989 185.872 254.965 186.055 254.961 186.273V186.327H254.148ZM254.577 188.054C254.422 188.054 254.289 187.999 254.177 187.889C254.065 187.777 254.009 187.643 254.009 187.486C254.009 187.33 254.065 187.198 254.177 187.088C254.289 186.976 254.422 186.92 254.577 186.92C254.731 186.92 254.863 186.976 254.975 187.088C255.089 187.198 255.146 187.33 255.146 187.486C255.146 187.59 255.119 187.686 255.066 187.773C255.015 187.858 254.947 187.926 254.862 187.977C254.776 188.028 254.682 188.054 254.577 188.054Z" fill="black"/>
<path d="M352.385 190.045C352.226 190.045 352.082 190.032 351.952 190.006C351.821 189.983 351.724 189.957 351.661 189.928L351.916 189.058C352.11 189.11 352.283 189.133 352.435 189.126C352.586 189.119 352.72 189.062 352.836 188.955C352.954 188.849 353.058 188.675 353.148 188.433L353.28 188.071L351.284 182.545H352.42L353.802 186.778H353.859L355.24 182.545H356.38L354.132 188.728C354.028 189.012 353.895 189.252 353.734 189.449C353.573 189.648 353.382 189.797 353.159 189.896C352.937 189.996 352.679 190.045 352.385 190.045ZM359.543 188.11C359.006 188.11 358.543 187.995 358.155 187.766C357.769 187.534 357.47 187.208 357.26 186.789C357.051 186.368 356.947 185.874 356.947 185.308C356.947 184.75 357.051 184.257 357.26 183.831C357.47 183.405 357.764 183.072 358.14 182.833C358.519 182.594 358.962 182.474 359.469 182.474C359.776 182.474 360.075 182.525 360.363 182.627C360.652 182.729 360.912 182.889 361.141 183.107C361.371 183.324 361.552 183.607 361.684 183.955C361.817 184.301 361.883 184.721 361.883 185.216V185.592H357.547V184.797H360.843C360.843 184.518 360.786 184.27 360.672 184.055C360.559 183.837 360.399 183.665 360.193 183.54C359.989 183.414 359.75 183.352 359.476 183.352C359.177 183.352 358.917 183.425 358.694 183.572C358.474 183.716 358.304 183.906 358.183 184.14C358.065 184.372 358.006 184.624 358.006 184.896V185.518C358.006 185.882 358.069 186.192 358.197 186.448C358.327 186.704 358.509 186.899 358.741 187.034C358.973 187.167 359.244 187.233 359.554 187.233C359.755 187.233 359.939 187.205 360.104 187.148C360.27 187.089 360.413 187.001 360.534 186.885C360.655 186.769 360.747 186.626 360.811 186.455L361.816 186.636C361.735 186.932 361.591 187.192 361.383 187.414C361.177 187.634 360.917 187.806 360.605 187.929C360.295 188.05 359.941 188.11 359.543 188.11ZM367.149 183.877L366.186 184.048C366.146 183.924 366.082 183.807 365.995 183.696C365.909 183.585 365.793 183.494 365.647 183.423C365.5 183.352 365.316 183.316 365.096 183.316C364.796 183.316 364.545 183.384 364.343 183.518C364.142 183.651 364.042 183.823 364.042 184.033C364.042 184.216 364.109 184.362 364.244 184.474C364.379 184.585 364.597 184.676 364.897 184.747L365.764 184.946C366.266 185.062 366.64 185.241 366.886 185.482C367.132 185.724 367.255 186.037 367.255 186.423C367.255 186.75 367.161 187.041 366.971 187.297C366.784 187.55 366.523 187.749 366.186 187.893C365.853 188.038 365.466 188.11 365.025 188.11C364.414 188.11 363.916 187.98 363.53 187.719C363.144 187.457 362.908 187.084 362.82 186.601L363.846 186.445C363.91 186.712 364.042 186.915 364.24 187.052C364.439 187.187 364.699 187.254 365.018 187.254C365.366 187.254 365.644 187.182 365.853 187.038C366.061 186.891 366.165 186.712 366.165 186.501C366.165 186.331 366.101 186.188 365.973 186.072C365.848 185.956 365.655 185.868 365.395 185.809L364.471 185.607C363.962 185.491 363.586 185.306 363.342 185.053C363.1 184.799 362.98 184.478 362.98 184.09C362.98 183.768 363.07 183.487 363.25 183.245C363.43 183.004 363.678 182.815 363.995 182.68C364.313 182.543 364.676 182.474 365.086 182.474C365.675 182.474 366.139 182.602 366.478 182.858C366.816 183.111 367.04 183.451 367.149 183.877Z" fill="black"/>
<circle cx="261.5" cy="184.5" r="1.5" fill="#230E49"/>
<circle cx="278.5" cy="165.5" r="7.5" fill="black"/>
<circle cx="233.5" cy="52.5" r="7.5" fill="black"/>
<path d="M237 53.4995H278.506M279 158V53" stroke="black"/>
</svg>
