<svg width="247" height="85" viewBox="0 0 247 85" fill="none" xmlns="http://www.w3.org/2000/svg">
<path d="M111.02 59.92V47.464L111.92 47.572C111.896 48.148 111.692 48.724 111.308 49.3C110.924 49.852 110.408 50.368 109.76 50.848C109.112 51.304 108.392 51.676 107.6 51.964C106.832 52.228 106.028 52.36 105.188 52.36C103.508 52.36 101.996 51.94 100.652 51.1C99.332 50.236 98.288 49.06 97.52 47.572C96.752 46.084 96.368 44.392 96.368 42.496C96.368 40.6 96.74 38.908 97.484 37.42C98.252 35.932 99.296 34.768 100.616 33.928C101.936 33.064 103.424 32.632 105.08 32.632C106.016 32.632 106.904 32.776 107.744 33.064C108.584 33.352 109.34 33.748 110.012 34.252C110.684 34.732 111.212 35.272 111.596 35.872C112.004 36.448 112.208 37.048 112.208 37.672L111.056 37.78L111.128 32.992H115.448V59.92H111.02ZM105.908 48.436C106.94 48.436 107.852 48.184 108.644 47.68C109.436 47.176 110.048 46.48 110.48 45.592C110.936 44.704 111.164 43.672 111.164 42.496C111.164 41.32 110.936 40.288 110.48 39.4C110.048 38.488 109.436 37.78 108.644 37.276C107.852 36.772 106.94 36.52 105.908 36.52C104.876 36.52 103.964 36.784 103.172 37.312C102.38 37.816 101.756 38.524 101.3 39.436C100.844 40.324 100.616 41.344 100.616 42.496C100.616 43.648 100.844 44.68 101.3 45.592C101.756 46.48 102.38 47.176 103.172 47.68C103.964 48.184 104.876 48.436 105.908 48.436ZM131.42 52V39.868C131.42 38.836 131.072 38.032 130.376 37.456C129.704 36.856 128.828 36.556 127.748 36.556C126.74 36.556 125.828 36.76 125.012 37.168C124.196 37.552 123.44 38.176 122.744 39.04L120.008 36.304C121.136 35.104 122.384 34.192 123.752 33.568C125.12 32.944 126.596 32.632 128.18 32.632C129.692 32.632 130.988 32.872 132.068 33.352C133.172 33.832 134.024 34.552 134.624 35.512C135.224 36.448 135.524 37.6 135.524 38.968V52H131.42ZM126.02 52.36C124.796 52.36 123.704 52.12 122.744 51.64C121.784 51.16 121.016 50.5 120.44 49.66C119.888 48.796 119.612 47.788 119.612 46.636C119.612 45.628 119.792 44.752 120.152 44.008C120.512 43.24 121.04 42.604 121.736 42.1C122.456 41.596 123.344 41.224 124.4 40.984C125.48 40.72 126.716 40.588 128.108 40.588H133.544L133.22 43.756H127.856C127.208 43.756 126.632 43.816 126.128 43.936C125.624 44.056 125.192 44.236 124.832 44.476C124.472 44.716 124.208 45.004 124.04 45.34C123.872 45.652 123.788 46.036 123.788 46.492C123.788 46.972 123.908 47.392 124.148 47.752C124.388 48.088 124.712 48.352 125.12 48.544C125.528 48.736 126.008 48.832 126.56 48.832C127.352 48.832 128.096 48.7 128.792 48.436C129.512 48.172 130.148 47.8 130.7 47.32C131.252 46.84 131.684 46.3 131.996 45.7L132.896 48.148C132.392 48.988 131.768 49.72 131.024 50.344C130.304 50.968 129.512 51.46 128.648 51.82C127.808 52.18 126.932 52.36 126.02 52.36ZM140.129 52V33.028H144.449L144.521 36.88L143.801 37.168C144.017 36.544 144.341 35.968 144.773 35.44C145.205 34.888 145.721 34.408 146.321 34C146.921 33.592 147.557 33.28 148.229 33.064C148.901 32.824 149.597 32.704 150.317 32.704C151.349 32.704 152.261 32.872 153.053 33.208C153.845 33.544 154.505 34.06 155.033 34.756C155.585 35.452 156.005 36.34 156.293 37.42L155.609 37.276L155.861 36.7C156.149 36.124 156.533 35.596 157.013 35.116C157.493 34.636 158.033 34.216 158.633 33.856C159.233 33.472 159.857 33.184 160.505 32.992C161.177 32.8 161.825 32.704 162.449 32.704C163.889 32.704 165.089 32.992 166.049 33.568C167.009 34.144 167.729 35.02 168.209 36.196C168.689 37.372 168.929 38.824 168.929 40.552V52H164.501V40.84C164.501 39.4 164.213 38.332 163.637 37.636C163.085 36.94 162.221 36.592 161.045 36.592C160.421 36.592 159.845 36.7 159.317 36.916C158.789 37.108 158.321 37.396 157.913 37.78C157.529 38.14 157.229 38.572 157.013 39.076C156.797 39.556 156.689 40.096 156.689 40.696V52H152.261V40.804C152.261 39.436 151.961 38.392 151.361 37.672C150.785 36.952 149.957 36.592 148.877 36.592C148.253 36.592 147.677 36.7 147.149 36.916C146.645 37.108 146.189 37.396 145.781 37.78C145.397 38.14 145.097 38.56 144.881 39.04C144.665 39.52 144.557 40.048 144.557 40.624V52H140.129ZM184.682 52V39.868C184.682 38.836 184.334 38.032 183.638 37.456C182.966 36.856 182.09 36.556 181.01 36.556C180.002 36.556 179.09 36.76 178.274 37.168C177.458 37.552 176.702 38.176 176.006 39.04L173.27 36.304C174.398 35.104 175.646 34.192 177.014 33.568C178.382 32.944 179.858 32.632 181.442 32.632C182.954 32.632 184.25 32.872 185.33 33.352C186.434 33.832 187.286 34.552 187.886 35.512C188.486 36.448 188.786 37.6 188.786 38.968V52H184.682ZM179.282 52.36C178.058 52.36 176.966 52.12 176.006 51.64C175.046 51.16 174.278 50.5 173.702 49.66C173.15 48.796 172.874 47.788 172.874 46.636C172.874 45.628 173.054 44.752 173.414 44.008C173.774 43.24 174.302 42.604 174.998 42.1C175.718 41.596 176.606 41.224 177.662 40.984C178.742 40.72 179.978 40.588 181.37 40.588H186.806L186.482 43.756H181.118C180.47 43.756 179.894 43.816 179.39 43.936C178.886 44.056 178.454 44.236 178.094 44.476C177.734 44.716 177.47 45.004 177.302 45.34C177.134 45.652 177.05 46.036 177.05 46.492C177.05 46.972 177.17 47.392 177.41 47.752C177.65 48.088 177.974 48.352 178.382 48.544C178.79 48.736 179.27 48.832 179.822 48.832C180.614 48.832 181.358 48.7 182.054 48.436C182.774 48.172 183.41 47.8 183.962 47.32C184.514 46.84 184.946 46.3 185.258 45.7L186.158 48.148C185.654 48.988 185.03 49.72 184.286 50.344C183.566 50.968 182.774 51.46 181.91 51.82C181.07 52.18 180.194 52.36 179.282 52.36ZM193.463 52V33.028H197.783L197.855 39.076L197.279 37.708C197.543 36.748 197.999 35.884 198.647 35.116C199.295 34.348 200.039 33.748 200.879 33.316C201.743 32.86 202.631 32.632 203.543 32.632C203.951 32.632 204.335 32.668 204.695 32.74C205.079 32.812 205.391 32.896 205.631 32.992L204.479 37.816C204.191 37.672 203.855 37.564 203.471 37.492C203.111 37.396 202.739 37.348 202.355 37.348C201.731 37.348 201.143 37.468 200.591 37.708C200.063 37.924 199.595 38.236 199.187 38.644C198.803 39.052 198.491 39.532 198.251 40.084C198.011 40.612 197.891 41.2 197.891 41.848V52H193.463Z" fill="#230E49"/>
<path d="M80 33.2L55.7746 14L77.7778 71L65.9155 52H40L80 33.2Z" fill="#230E49"/>
</svg>
